<?xml version="1.0" standalone="no"?>
<!DOCTYPE svg PUBLIC "-//W3C//DTD SVG 20010904//EN"
 "http://www.w3.org/TR/2001/REC-SVG-20010904/DTD/svg10.dtd">
<svg version="1.0" xmlns="http://www.w3.org/2000/svg"
 width="1200.000000pt" height="850.000000pt" viewBox="0 0 1200.000000 850.000000"
 preserveAspectRatio="xMidYMid meet">

<g transform="translate(0.000000,850.000000) scale(0.100000,-0.100000)"
fill="#000000" stroke="none">
<path d="M3452 8478 c2 -16 9 -22 23 -21 11 1 23 -3 26 -9 4 -6 6 -64 4 -129
-2 -66 1 -121 6 -125 8 -5 14 18 10 40 -3 15 10 46 20 46 5 0 9 -13 9 -29 0
-16 3 -31 8 -34 4 -2 2 -2 -5 -1 -6 2 -14 -14 -18 -37 -4 -21 -11 -42 -16 -45
-11 -7 -2 -63 12 -78 13 -14 11 -126 -2 -126 -6 0 -8 8 -4 19 3 11 1 22 -4 25
-5 4 -14 -13 -18 -36 -7 -32 -13 -42 -26 -40 -11 2 -18 -6 -23 -25 -3 -15 -8
-34 -10 -41 -2 -8 3 -12 13 -10 9 2 20 14 24 28 7 24 7 24 8 3 1 -29 19 -30
23 -1 5 38 28 33 28 -5 0 -37 -21 -67 -46 -67 -19 0 -18 -21 2 -46 8 -10 12
-13 8 -5 -6 12 11 30 29 31 4 0 7 -35 5 -77 -2 -51 -7 -78 -15 -78 -6 0 -15
-3 -19 -7 -4 -5 -18 -8 -31 -8 -12 0 -23 -4 -23 -10 0 -5 5 -10 11 -10 8 0 10
-20 7 -65 -3 -36 -2 -67 2 -70 13 -8 27 86 18 125 -2 8 5 16 14 18 32 7 43
-39 30 -126 -7 -42 -12 -138 -13 -212 -1 -150 -11 -239 -23 -205 -4 11 -11 30
-16 41 -5 12 -6 40 -3 63 4 26 2 41 -5 41 -8 0 -11 -61 -8 -205 1 -113 -1
-205 -6 -205 -4 0 -8 7 -8 15 0 8 -4 15 -10 15 -14 0 -13 -37 1 -42 8 -3 6
-37 -10 -118 -11 -63 -27 -149 -34 -190 -11 -69 -14 -75 -37 -76 -15 -1 -32 8
-43 23 -12 15 -27 23 -37 20 -10 -3 -54 4 -97 14 -43 11 -139 31 -213 45 -74
14 -141 31 -149 37 -10 9 -20 4 -42 -21 -46 -52 -38 -92 25 -124 79 -39 106
-66 106 -103 0 -21 9 -44 23 -61 20 -23 34 -28 85 -32 63 -4 71 -9 51 -29 -8
-8 -7 -20 5 -43 12 -24 13 -37 5 -52 -14 -27 13 -68 46 -68 20 0 24 -6 27 -32
3 -29 9 -35 56 -54 29 -12 57 -25 62 -30 4 -5 3 -61 -2 -124 -12 -144 -5 -210
27 -244 13 -14 32 -26 42 -26 42 0 94 -21 92 -38 -3 -31 1 -43 11 -37 6 3 10
15 10 26 0 16 3 18 18 10 13 -7 19 -23 21 -58 2 -40 7 -53 33 -74 16 -15 38
-25 47 -22 31 8 39 -18 22 -72 l-15 -50 -6 35 -6 35 -14 -29 c-14 -27 -13 -30
8 -44 30 -20 28 -29 -9 -34 l-31 -5 4 64 c2 42 -1 63 -8 63 -16 0 -26 -92 -14
-124 9 -24 5 -29 -38 -63 -26 -21 -66 -58 -89 -83 -23 -25 -61 -55 -85 -68
l-43 -23 31 28 c17 15 48 41 68 56 47 36 46 53 -1 27 -21 -11 -46 -17 -58 -14
-22 5 -95 -19 -95 -32 0 -3 15 -4 34 -2 43 5 39 -3 -13 -27 -45 -20 -97 -14
-87 10 15 39 -39 1 -65 -45 -13 -22 -26 -40 -30 -40 -4 0 -13 -16 -20 -35 -9
-23 -19 -35 -32 -35 -12 0 -26 -17 -42 -53 -14 -29 -38 -63 -54 -75 -19 -14
-32 -35 -37 -57 -5 -26 -25 -55 -75 -105 -38 -38 -69 -74 -69 -80 0 -21 -81
-130 -96 -130 -8 0 -26 -11 -39 -25 -27 -26 -34 -82 -14 -102 9 -9 8 -18 -5
-37 -9 -15 -21 -26 -26 -26 -13 0 -50 -37 -50 -49 0 -5 12 -23 26 -40 l25 -30
-22 -30 c-28 -38 -38 -99 -32 -187 8 -101 -4 -184 -25 -184 -42 -1 -46 -13
-31 -100 12 -76 14 -81 35 -76 18 5 22 1 27 -31 4 -20 4 -77 1 -127 l-6 -91
32 -34 c28 -30 35 -33 74 -29 l43 5 17 -58 c9 -32 16 -69 16 -82 0 -13 3 -27
7 -31 10 -10 33 -74 47 -131 9 -38 20 -55 43 -70 36 -23 40 -44 46 -222 l3
-103 -106 -1 c-108 0 -208 -6 -247 -15 -20 -4 -23 -11 -23 -48 0 -49 11 -63
55 -68 l30 -3 9 -158 c8 -159 4 -190 -28 -186 -43 5 -47 0 -44 -54 l3 -52 175
-1 175 0 3 -87 4 -87 -25 0 c-38 0 -57 -25 -51 -63 9 -53 12 -57 44 -57 29 0
30 -1 31 -47 0 -27 2 -57 4 -68 8 -43 7 -217 -1 -225 -5 -5 -20 -10 -34 -12
-22 -3 -25 -9 -28 -48 -4 -48 13 -70 53 -70 21 0 22 -5 28 -157 6 -179 10
-186 91 -198 43 -7 43 -7 64 -74 30 -93 102 -200 135 -201 36 -2 103 -89 153
-200 9 -19 27 -47 39 -62 13 -15 29 -53 36 -83 l12 -55 175 0 175 0 -6 59 c-5
57 -21 93 -60 138 -19 21 -19 23 -2 49 11 18 15 38 12 59 -6 35 14 75 37 75
24 0 46 36 57 93 10 48 9 61 -6 92 -14 31 -15 44 -5 84 6 26 10 65 8 87 -3 33
0 39 17 39 16 0 20 7 18 30 -1 16 -7 31 -13 33 -5 2 -10 8 -10 13 0 5 64 9
145 9 132 0 165 -6 135 -25 -13 -8 -13 -92 0 -100 23 -14 7 -25 -40 -25 -27 0
-50 5 -50 10 0 6 5 10 10 10 6 0 10 25 10 55 0 42 -3 55 -15 55 -8 0 -15 -7
-15 -15 0 -19 -14 -19 -30 0 -16 20 -59 19 -67 -1 -7 -19 11 -41 21 -25 12 19
26 12 26 -14 0 -27 -9 -32 -28 -13 -9 9 -13 7 -18 -7 -5 -12 0 -23 17 -36 l24
-19 -45 0 c-54 0 -73 -11 -68 -36 2 -14 13 -20 42 -22 26 -2 45 -12 62 -30 27
-31 30 -42 10 -42 -8 0 -27 -11 -43 -24 -29 -25 -34 -63 -18 -149 7 -34 5 -38
-11 -35 -15 2 -20 -4 -22 -36 -3 -34 -1 -38 16 -34 17 5 24 -5 47 -68 15 -40
36 -83 48 -96 18 -19 21 -33 19 -81 l-3 -57 261 0 c195 0 265 3 275 13 40 35
43 37 54 23 7 -9 7 -16 -1 -24 -9 -9 -8 -12 4 -12 25 0 32 19 14 39 -27 30
-20 40 19 28 27 -8 41 -7 60 3 34 18 76 0 72 -32 -4 -37 31 -36 44 2 7 20 17
30 28 28 9 -1 22 1 30 6 8 5 16 4 21 -4 4 -7 12 -10 18 -6 16 10 1 -37 -16
-51 -14 -11 -13 -13 5 -13 12 0 23 6 26 13 4 9 7 9 18 -1 16 -15 71 -16 86 -1
8 8 13 8 17 0 4 -6 17 -11 29 -11 20 1 20 2 5 11 -10 5 -18 17 -18 26 0 9 -7
25 -17 35 -24 27 -8 33 25 9 36 -25 84 -29 76 -6 -6 14 -3 16 47 19 9 1 22 6
30 12 36 28 42 28 35 1 -3 -15 -3 -45 0 -67 l7 -40 293 0 c184 0 295 4 299 10
3 6 2 10 -3 10 -16 0 -21 52 -10 103 7 35 7 52 -1 60 -6 6 -11 24 -11 40 0 28
2 29 31 23 17 -3 36 -6 41 -6 5 0 6 -4 3 -10 -3 -5 -1 -18 5 -29 7 -14 7 -22
0 -26 -6 -4 -8 -16 -3 -28 4 -12 7 -49 7 -82 l1 -60 76 -3 c89 -3 89 -3 84
103 -1 33 0 52 2 43 3 -10 14 -18 25 -18 16 0 18 3 9 14 -16 19 0 28 47 26 54
-3 59 -2 59 14 0 8 -11 17 -24 21 -24 6 -30 19 -13 30 6 3 10 1 10 -4 0 -6 8
-11 18 -11 25 0 98 -65 83 -74 -14 -9 -5 -26 14 -26 15 0 23 30 29 100 2 25 8
63 14 85 6 22 16 85 21 140 8 92 33 175 52 175 21 0 39 -14 39 -31 0 -10 5
-19 11 -19 5 0 9 -8 7 -17 -1 -10 1 -24 6 -31 4 -7 6 -16 3 -19 -3 -3 -17 14
-31 36 -26 40 -54 57 -42 25 4 -10 0 -21 -9 -28 -13 -9 -14 -19 -7 -52 5 -22
5 -46 1 -54 -7 -14 -20 -87 -52 -300 -8 -52 -18 -103 -22 -112 -7 -17 12 -18
318 -18 l326 0 6 38 c11 63 16 74 31 68 17 -6 18 8 3 35 -5 11 -7 28 -4 38 7
24 62 48 77 33 11 -11 1 -35 -12 -27 -4 3 -15 2 -23 -1 -23 -8 -9 -34 18 -34
13 0 26 -7 29 -16 5 -13 14 -15 41 -10 46 9 105 -2 105 -20 0 -8 9 -14 20 -14
11 0 20 4 20 9 0 6 12 9 27 8 19 -1 28 3 31 16 3 15 0 18 -16 13 -25 -8 -72 2
-72 16 0 5 18 6 45 2 36 -5 45 -3 45 9 0 8 -15 22 -32 31 l-33 16 34 -2 c31
-3 36 -7 50 -48 12 -33 21 -44 33 -42 9 2 30 -4 46 -12 24 -12 40 -13 99 -4
76 12 108 7 99 -17 -4 -11 1 -13 27 -8 37 7 48 13 24 13 -9 0 -17 5 -17 10 0
6 -6 10 -14 10 -7 0 -19 7 -26 15 -7 8 -20 15 -29 15 -9 0 -29 14 -44 30 -16
17 -33 30 -38 30 -19 0 -8 18 15 24 32 8 42 47 17 64 -22 15 -17 56 6 48 15
-6 43 15 43 33 0 6 5 11 10 11 7 0 8 -13 4 -35 -6 -35 -6 -35 29 -35 44 0 58
-17 20 -26 -54 -12 -63 -15 -63 -26 0 -5 7 -7 16 -4 9 3 34 9 55 12 31 5 39
10 34 22 -3 9 0 19 7 24 8 4 -5 8 -32 8 -42 1 -44 2 -25 16 17 13 18 16 5 25
-12 8 -9 9 10 7 14 -2 24 -9 22 -16 -1 -6 5 -12 13 -12 8 0 12 6 9 14 -4 11 7
13 53 10 32 -1 77 -3 100 -3 48 0 42 14 68 -151 11 -64 26 -119 39 -140 11
-19 21 -38 22 -42 1 -5 2 -12 3 -18 1 -6 79 -10 212 -10 137 0 208 3 204 10
-3 5 -1 10 4 10 6 0 11 -4 11 -10 0 -6 53 -10 140 -10 l139 0 -26 51 c-24 48
-24 54 -12 93 18 53 19 162 2 158 -15 -2 -17 14 -4 22 23 15 103 181 108 227
3 27 10 52 14 55 13 8 11 42 -3 47 -8 3 -6 6 4 6 13 1 23 21 39 74 28 98 40
126 65 165 15 21 22 47 22 75 -1 41 24 135 55 209 l15 36 89 4 c85 4 91 6 173
54 l85 50 3 90 c4 122 2 127 -63 155 -62 27 -69 38 -24 37 47 -2 57 19 51 109
-4 82 -19 108 -54 97 -9 -3 -41 -4 -70 -4 -29 1 -88 1 -130 1 l-78 -2 1 38 c0
21 8 58 18 83 l19 45 78 6 c71 5 88 10 169 56 l90 50 3 89 c2 49 1 98 -2 109
-3 12 -28 32 -63 50 l-58 29 40 6 40 5 0 95 c0 52 -8 146 -18 208 l-18 113 40
45 c22 25 50 67 61 92 88 192 103 210 146 177 10 -8 28 -15 38 -15 29 0 187
-61 218 -83 18 -14 34 -18 53 -13 33 8 90 -9 131 -40 27 -20 42 -23 105 -22
66 1 83 -3 149 -34 41 -20 94 -42 118 -49 39 -11 44 -11 66 10 l24 23 51 -28
c56 -32 69 -29 104 18 13 18 18 34 13 52 -5 22 -11 25 -54 24 -70 -2 -92 8
-92 41 0 16 -7 34 -15 41 -13 11 -15 9 -15 -13 0 -13 -7 -30 -15 -37 -19 -16
-65 -22 -65 -9 0 14 23 52 39 65 11 9 5 12 -27 18 -23 3 -42 11 -42 16 0 6 -5
10 -11 10 -6 0 -8 -9 -4 -20 7 -23 -10 -27 -19 -4 -4 10 -13 13 -26 9 -18 -6
-20 -3 -15 17 6 22 -1 27 -77 60 -79 34 -143 53 -152 46 -2 -2 -12 4 -22 14
-33 29 -131 44 -161 25 -15 -10 -53 9 -53 26 0 9 -2 9 -8 -1 -7 -10 -16 -9
-48 2 -38 14 -39 15 -9 16 29 1 29 1 11 15 -11 8 -34 15 -50 15 -24 0 -28 -3
-16 -10 11 -8 7 -9 -15 -4 -39 9 -45 13 -45 28 0 8 -19 19 -42 25 -48 14 -64
13 -60 0 3 -11 -1 -11 -33 1 -14 5 -24 14 -20 19 3 6 -2 14 -11 19 -15 9 -14
13 9 43 49 64 69 128 64 194 -18 198 -30 290 -51 370 -31 120 -56 235 -56 260
0 11 -7 45 -15 75 -8 30 -22 89 -31 130 -10 47 -25 85 -40 103 -20 23 -24 39
-22 71 3 35 0 41 -16 41 -10 0 -22 10 -27 23 -10 26 -41 42 -47 24 -2 -7 -9
-9 -15 -5 -6 4 -8 0 -4 -10 10 -26 -1 -20 -34 18 -21 24 -40 35 -58 35 -30 0
-67 32 -56 49 3 6 -2 14 -12 18 -10 4 -22 12 -28 19 -6 7 -28 12 -50 11 -35
-2 -40 -5 -38 -25 3 -20 0 -19 -28 10 -29 32 -30 32 -25 8 2 -14 15 -58 27
-98 12 -39 20 -74 18 -76 -8 -7 -79 6 -79 15 0 5 8 6 18 3 13 -5 14 -4 3 4 -7
5 -10 15 -6 21 5 9 10 9 21 0 8 -6 14 -7 14 -2 0 23 -34 109 -47 120 -8 6 -12
16 -9 21 3 6 -7 9 -24 8 -17 -1 -30 1 -30 5 0 4 -3 16 -7 26 -6 17 -5 17 15
-1 38 -33 37 -8 -1 29 -19 19 -38 44 -42 55 -3 11 -10 20 -15 20 -4 0 -17 16
-29 35 -23 40 -20 43 19 15 29 -21 40 -18 40 13 0 12 5 17 14 14 7 -3 19 0 26
6 10 9 14 9 17 -1 7 -20 45 -52 60 -52 19 0 4 25 -39 70 -19 19 -37 44 -41 54
-9 22 12 126 25 126 4 0 8 11 8 25 0 14 9 30 20 37 37 24 14 68 -35 68 -9 0
-23 6 -30 14 -12 12 -12 16 1 27 8 7 34 44 56 83 48 82 137 176 167 176 11 0
36 -8 56 -17 32 -15 36 -21 33 -53 -2 -19 -9 -36 -15 -36 -26 -3 -28 -5 -13
-14 13 -9 10 -14 -15 -35 -16 -14 -36 -25 -43 -25 -13 0 -36 -49 -28 -58 7 -6
117 94 138 127 23 34 22 53 -2 101 -11 22 -20 46 -20 53 0 17 41 104 76 162
41 68 29 126 -31 151 -49 20 -73 17 -87 -10 -19 -36 -340 -316 -361 -316 -6 1
-28 25 -47 55 -34 53 -50 67 -50 43 0 -6 -9 -3 -20 7 -22 20 -28 44 -6 26 20
-17 26 7 10 38 -7 14 -9 30 -5 35 5 6 5 43 0 81 -4 39 -5 122 -2 185 5 99 3
117 -11 129 -9 7 -16 12 -17 10 -12 -66 -12 -74 -6 -129 5 -40 3 -46 -14 -47
-15 -1 -19 5 -19 30 0 18 -1 104 -3 192 -4 162 -11 220 -30 243 -7 9 -6 21 4
39 9 17 14 59 14 120 0 83 6 114 17 82 7 -22 50 2 64 37 15 37 19 120 5 128
-4 3 -16 -10 -27 -29 -12 -22 -21 -30 -26 -22 -4 6 -10 8 -14 4 -4 -3 -1 -13
5 -21 7 -8 11 -30 9 -48 -3 -28 -5 -30 -12 -13 -4 11 -12 28 -17 37 -17 32
-10 58 20 76 27 15 30 22 29 64 0 34 -4 48 -14 48 -8 0 -14 -9 -14 -21 0 -11
-5 -17 -10 -14 -6 4 -9 77 -8 199 3 181 4 192 21 182 26 -16 29 -39 16 -106
-9 -45 -9 -63 0 -74 9 -11 8 -15 -4 -20 -23 -8 -9 -26 21 -26 20 0 24 5 24 28
0 33 23 71 34 54 4 -6 13 -9 20 -6 7 3 16 -2 19 -10 10 -25 27 -19 27 9 0 28
-38 55 -50 36 -4 -7 -6 10 -6 36 1 35 5 47 15 45 10 -2 12 5 7 30 -3 17 -11
35 -17 38 -6 4 -9 18 -8 31 4 46 -1 69 -16 69 -18 0 -19 12 -3 28 9 9 7 13 -5
18 -34 13 -51 -22 -22 -46 8 -7 15 -17 15 -23 0 -6 -3 -7 -7 -4 -12 13 -33
-15 -33 -44 0 -24 -4 -29 -25 -29 -18 0 -26 6 -30 25 -3 14 -7 36 -10 49 -3
15 0 26 9 29 8 3 16 16 18 29 4 18 6 16 12 -14 12 -55 26 -47 27 15 0 28 1
125 2 214 1 89 5 165 9 169 4 4 14 1 23 -6 13 -11 15 -7 15 33 0 25 -4 48 -9
52 -15 8 -41 -24 -41 -51 0 -13 -5 -24 -11 -24 -10 0 -4 203 7 222 3 5 13 7
22 6 14 -2 18 8 23 57 3 33 1 75 -4 93 -5 21 -5 45 2 63 9 25 8 29 -8 29 -15
0 -19 -9 -20 -52 -1 -70 -11 -75 -11 -5 0 31 -4 57 -10 57 -5 0 -10 -8 -10
-17 -1 -17 -1 -17 -14 -1 -7 10 -16 15 -19 11 -11 -10 -8 -18 13 -41 18 -19
19 -27 10 -62 -6 -22 -15 -38 -20 -35 -13 8 -24 -60 -14 -92 l8 -28 6 35 c5
22 8 -8 9 -82 0 -73 -3 -118 -9 -118 -5 0 -10 11 -10 25 0 14 -4 25 -9 25 -5
0 -12 16 -15 35 -4 19 -12 35 -18 35 -7 0 -9 -35 -8 -102 4 -136 2 -160 -10
-153 -5 3 -10 32 -11 63 -1 56 -1 57 -14 27 l-14 -30 -1 45 c0 25 -3 55 -6 68
-4 13 -2 22 5 22 6 0 11 -13 11 -29 0 -17 5 -33 10 -36 6 -4 10 11 10 39 0 25
-5 48 -11 52 -8 4 -7 9 2 15 15 9 30 231 21 296 l-5 33 -1774 0 c-1420 0
-1773 -2 -1767 -12 6 -10 4 -11 -7 0 -10 9 -128 12 -521 12 -507 0 -508 0
-508 -21 0 -11 -5 -29 -11 -40 -7 -15 -7 -24 1 -34 7 -8 7 -15 1 -19 -22 -14
-25 46 -4 100 9 23 -183 18 -196 -5 -9 -15 -10 -15 -16 2 -10 26 -37 22 -33
-5z m98 -13 c0 -8 -4 -15 -10 -15 -5 0 -10 7 -10 15 0 8 5 15 10 15 6 0 10 -7
10 -15z m1260 -66 c0 -3 18 -14 40 -25 22 -10 40 -24 40 -30 0 -6 16 -29 35
-50 20 -21 31 -40 25 -42 -8 -3 -8 -8 0 -17 8 -10 8 -15 -1 -21 -8 -4 -19 1
-28 15 -31 45 -106 124 -126 132 -17 7 -17 8 -2 8 22 1 21 10 -3 41 -11 14
-20 30 -20 35 0 10 39 -35 40 -46z m-1260 -35 c0 -41 -4 -63 -10 -59 -5 3 -10
33 -10 66 0 33 4 59 10 59 6 0 10 -29 10 -66z m385 -33 c-8 -8 -35 22 -35 38
0 12 5 10 20 -9 10 -14 17 -27 15 -29z m-244 6 c-10 -9 -11 -8 -5 6 3 10 9 15
12 12 3 -3 0 -11 -7 -18z m174 -45 c-9 -9 -25 11 -25 31 1 21 1 21 15 -3 7
-14 12 -27 10 -28z m1295 20 c0 -10 -41 -35 -47 -28 -9 8 17 36 33 36 8 0 14
-3 14 -8z m-1568 -27 c3 -14 1 -28 -3 -31 -5 -3 -9 9 -9 25 0 38 6 40 12 6z
m128 -28 c0 -5 -4 -5 -10 -2 -5 3 -10 14 -10 23 0 15 2 15 10 2 5 -8 10 -19
10 -23z m2970 12 c0 -11 5 -17 10 -14 6 3 10 -1 10 -9 0 -9 -2 -16 -5 -16 -12
0 -41 37 -37 48 6 20 22 14 22 -9z m1537 -11 c-3 -8 -6 -5 -6 6 -1 11 2 17 5
13 3 -3 4 -12 1 -19z m-3042 -8 l30 -20 -47 0 c-49 0 -57 7 -36 28 16 16 18
15 53 -8z m2421 -16 c116 -36 118 -36 151 -19 38 21 94 15 133 -13 30 -22 79
-108 80 -139 l0 -22 -35 20 c-30 18 -48 21 -120 18 -47 -2 -85 -1 -85 4 0 4 5
7 12 7 6 0 9 2 7 4 -2 3 -32 -1 -66 -8 -48 -10 -74 -23 -113 -56 -36 -30 -54
-40 -62 -32 -7 7 -19 7 -34 2 -24 -10 -30 -4 -16 15 10 14 36 12 56 -4 14 -12
16 -12 11 2 -4 10 1 18 17 22 13 4 37 20 55 36 25 21 28 29 17 33 -34 13 -65
5 -101 -26 -23 -21 -34 -27 -30 -15 3 9 2 17 -4 17 -6 0 -8 4 -4 9 3 6 -2 14
-11 19 -13 7 -29 1 -64 -24 -53 -38 -62 -41 -53 -18 5 12 2 15 -13 11 -47 -15
-108 -25 -119 -21 -7 3 -30 -5 -51 -18 l-39 -23 22 30 c34 49 54 62 136 90 78
27 187 73 187 80 0 9 -80 -10 -134 -31 -74 -30 -86 -24 -17 8 28 12 51 26 51
29 0 10 -83 -20 -101 -37 -8 -8 -19 -14 -24 -14 -4 0 -27 -16 -51 -35 -23 -19
-47 -35 -53 -35 -6 0 -11 -4 -11 -10 0 -5 -6 -10 -13 -10 -8 0 -42 -18 -76
-40 -68 -44 -80 -49 -60 -22 11 15 11 15 -1 4 -8 -7 -15 -20 -15 -30 0 -10 -9
-18 -22 -20 -16 -2 -49 -44 -118 -148 -53 -80 -99 -143 -102 -140 -3 2 11 29
30 58 19 29 47 79 62 110 36 74 162 214 250 279 89 65 151 96 234 119 105 29
171 25 307 -16z m-3899 -26 c-3 -8 -6 -5 -6 6 -1 11 2 17 5 13 3 -3 4 -12 1
-19z m4544 0 c6 -13 8 -20 4 -16 -5 4 -14 3 -22 -3 -10 -9 -13 -6 -13 15 0 32
15 34 31 4z m-3200 -32 l26 -43 -33 -1 c-18 -1 -36 3 -40 9 -7 13 4 79 14 79
4 0 19 -20 33 -44z m-1031 -20 c0 -6 -4 -17 -9 -25 -5 -8 -5 -29 1 -49 7 -27
7 -37 -2 -40 -6 -2 -15 -15 -20 -28 -7 -18 -17 -24 -40 -24 -40 0 -40 -23 1
-57 30 -26 37 -62 12 -70 -7 -3 -9 3 -6 15 6 26 -13 62 -34 62 -14 0 -15 12
-9 94 9 120 16 144 46 160 22 12 27 11 43 -6 9 -11 17 -25 17 -32z m931 31
c-1 -4 -1 -17 -2 -29 0 -22 -1 -22 -9 -3 -12 28 -12 47 1 43 6 -2 10 -7 10
-11z m-1394 -29 c-3 -8 -6 -5 -6 6 -1 11 2 17 5 13 3 -3 4 -12 1 -19z m1585
-18 c9 -17 29 -35 43 -42 14 -6 25 -15 25 -20 0 -26 -63 20 -85 63 -20 38 -5
37 17 -1z m-184 -35 c0 -14 7 -34 16 -44 9 -10 13 -21 9 -24 -4 -4 7 -22 24
-40 35 -38 96 -155 87 -168 -3 -5 11 -28 31 -50 20 -22 45 -61 56 -86 22 -51
23 -63 9 -63 -5 0 -10 10 -10 23 0 28 -39 82 -40 55 0 -11 -8 -18 -19 -18 -10
0 -24 -7 -31 -15 -21 -26 -25 -17 -22 45 3 38 -1 66 -8 75 -10 12 -10 18 1 31
11 14 11 18 -2 28 -8 6 -13 19 -11 29 2 10 -3 17 -12 17 -9 0 -16 6 -16 14 0
8 -7 16 -15 20 -9 3 -12 12 -9 21 4 9 -2 26 -13 38 -33 36 -58 137 -34 137 5
0 9 -11 9 -25z m142 -30 c7 -8 10 -19 6 -22 -4 -4 -10 -3 -14 2 -4 6 -19 16
-34 22 -16 7 -28 20 -28 28 0 14 3 14 28 1 16 -8 34 -22 42 -31z m-1533 3 c-3
-8 -6 -5 -6 6 -1 11 2 17 5 13 3 -3 4 -12 1 -19z m273 -10 c0 -16 -3 -19 -11
-11 -6 6 -8 16 -5 22 11 17 16 13 16 -11z m1172 0 c-9 -9 -15 -9 -24 0 -9 9
-7 12 12 12 19 0 21 -3 12 -12z m-1442 -18 c0 -5 -2 -10 -4 -10 -3 0 -8 5 -11
10 -3 6 -1 10 4 10 6 0 11 -4 11 -10z m140 -16 c0 -2 -9 0 -20 6 -11 6 -20 13
-20 16 0 2 9 0 20 -6 11 -6 20 -13 20 -16z m4117 20 c-3 -3 -12 -4 -19 -1 -8
3 -5 6 6 6 11 1 17 -2 13 -5z m-47 -11 c-8 -3 -24 -10 -35 -16 -18 -9 -19 -9
-6 6 7 10 23 17 35 16 14 0 16 -2 6 -6z m242 -23 c-14 -15 -22 -18 -27 -10 -8
13 -8 13 20 28 28 15 31 7 7 -18z m343 9 c8 -23 -3 -114 -12 -105 -8 8 -9 126
-1 126 4 0 10 -9 13 -21z m-4527 -12 c2 -12 -1 -15 -12 -11 -19 7 -22 38 -3
32 6 -3 13 -12 15 -21z m1383 13 c10 -6 19 -15 19 -21 0 -6 -5 -7 -12 -2 -7 4
-17 8 -22 8 -5 0 -11 6 -13 13 -6 15 2 15 28 2z m2459 -30 c-8 -6 -24 -10 -35
-9 -15 0 -13 3 10 13 32 14 49 11 25 -4z m225 -21 c5 -5 1 -9 -13 -9 -12 0
-22 -4 -22 -8 0 -9 -121 -35 -128 -27 -2 2 15 9 37 15 37 10 40 12 26 26 -8 9
-15 18 -15 21 0 9 104 -7 115 -18z m205 6 c14 -17 5 -51 -15 -59 -23 -8 -18
-34 8 -39 l22 -4 -22 -8 c-31 -10 -29 -21 11 -66 24 -25 37 -51 41 -81 11 -75
4 -100 -37 -127 -32 -21 -38 -30 -38 -60 0 -45 -10 -81 -21 -81 -5 0 -10 10
-10 23 l-2 22 -4 -22 c-2 -13 -9 -23 -14 -23 -12 0 -11 -31 0 -49 8 -12 12
-12 25 -2 18 15 19 9 10 -37 -7 -33 -18 -40 -76 -52 -28 -5 -38 -4 -43 7 -3 8
-3 18 -1 22 3 4 -9 13 -25 20 -20 9 -29 20 -29 36 0 14 -7 25 -19 28 -14 3
-18 11 -14 26 7 28 -6 79 -16 63 -12 -20 -39 -3 -50 31 -6 18 -12 58 -13 89
-2 32 -6 58 -10 58 -5 0 -8 -9 -8 -19 0 -11 -4 -23 -10 -26 -6 -3 -10 5 -10
19 0 33 25 45 102 51 35 2 75 6 91 10 15 3 27 1 27 -5 0 -5 8 -10 18 -10 10 0
23 -5 30 -12 16 -16 16 2 1 35 -9 20 -8 30 6 51 14 21 16 39 11 87 -5 59 -5
61 13 45 22 -20 38 -21 21 -1 -16 19 5 49 29 40 11 -4 10 -1 -4 15 -15 17 -16
20 -3 20 9 0 21 -7 28 -15z m-4511 -55 c1 -13 0 -13 -9 0 -5 8 -9 24 -9 35 l0
20 9 -20 c5 -11 9 -27 9 -35z m4010 47 c-2 -1 -15 -11 -29 -22 l-25 -20 19 23
c11 12 24 22 29 22 6 0 8 -1 6 -3z m-3497 -89 c-7 -7 -12 -8 -12 -2 0 14 12
26 19 19 2 -3 -1 -11 -7 -17z m4185 -8 c-8 -30 9 -33 31 -5 36 45 51 33 51
-42 0 -75 -5 -89 -24 -73 -18 15 -35 5 -37 -23 0 -12 -4 1 -7 28 -5 40 -9 49
-23 47 -13 -2 -18 4 -18 20 0 35 11 68 22 68 6 0 8 -9 5 -20z m-4613 -36 c3
-9 6 -25 6 -37 0 -18 -2 -19 -10 -7 -13 21 -28 3 -33 -40 -2 -20 -4 -12 -3 20
0 69 24 106 40 64z m244 -91 c-24 -64 -38 -87 -38 -60 0 18 47 117 55 117 2 0
-5 -26 -17 -57z m257 36 c3 -4 1 -10 -5 -14 -5 -3 -10 -14 -10 -23 0 -9 -9
-28 -20 -42 l-20 -25 0 56 c0 31 3 58 6 61 7 7 43 -2 49 -13z m3336 -40 c-2
-35 -6 -47 -12 -38 -14 22 -11 89 4 89 8 0 11 -15 8 -51z m-3912 -90 c0 -68 5
-126 10 -133 13 -15 4 -26 -21 -26 -22 0 -48 48 -32 58 6 4 11 43 11 87 0 88
10 148 23 140 4 -3 8 -59 9 -126z m4391 87 c0 -3 -4 -8 -10 -11 -5 -3 -10 -1
-10 4 0 6 5 11 10 11 6 0 10 -2 10 -4z m-4340 -77 c0 -17 5 -39 11 -50 13 -26
5 -50 -16 -43 -11 5 -15 21 -15 65 0 33 4 59 10 59 6 0 10 -14 10 -31z m3153
14 c-20 -8 -15 -23 7 -23 11 0 20 -4 20 -9 0 -14 -41 -61 -54 -61 -6 0 -19 -9
-29 -20 -9 -11 -23 -20 -30 -20 -28 0 -103 -69 -127 -116 -14 -27 -28 -50 -32
-52 -5 -2 -8 -12 -8 -22 0 -10 -4 -22 -10 -25 -23 -15 -6 28 50 121 67 112 92
144 112 144 7 0 31 20 52 45 22 25 44 45 50 44 6 0 5 -3 -1 -6z m-1697 -51
c-20 -20 -22 -1 -4 31 11 20 12 21 16 3 2 -10 -3 -26 -12 -34z m1604 22 c0 -8
-5 -12 -10 -9 -6 4 -8 11 -5 16 9 14 15 11 15 -7z m834 -24 c4 -25 3 -31 -4
-20 -5 8 -10 26 -10 39 0 32 6 24 14 -19z m-3564 -52 c0 -19 -18 -43 -26 -35
-4 3 -2 13 4 20 7 8 9 17 5 20 -3 4 -1 7 5 7 7 0 12 -6 12 -12z m1864 -17 c5
-8 -124 -54 -132 -47 -6 7 90 55 110 56 9 0 19 -4 22 -9z m-2180 -10 c4 -5 3
-17 0 -26 -5 -13 -8 -14 -15 -3 -5 7 -9 19 -9 26 0 14 16 16 24 3z m1446 -26
c0 -3 -11 -18 -25 -33 -28 -30 -35 -14 -8 18 17 19 33 26 33 15z m-1110 -35
c0 -5 -4 -10 -10 -10 -5 0 -10 5 -10 10 0 6 5 10 10 10 6 0 10 -4 10 -10z
m-413 -22 c-3 -8 -6 -5 -6 6 -1 11 2 17 5 13 3 -3 4 -12 1 -19z m1611 8 c27
-9 29 -26 2 -33 -11 -3 -20 -9 -20 -14 0 -5 -8 -9 -18 -9 -10 0 -23 -5 -28
-10 -8 -8 -19 -7 -37 1 -33 15 -35 29 -4 22 17 -4 19 -2 7 6 -12 8 -12 12 3
29 18 20 50 22 95 8z m2642 -58 c0 -5 -7 -8 -15 -8 -15 0 -20 21 -8 33 7 7 23
-11 23 -25z m-3811 -17 c0 -9 -4 -25 -8 -36 -7 -16 -9 -11 -12 21 -3 31 -1 40
8 37 7 -3 13 -13 12 -22z m-429 -44 c5 -55 -1 -74 -14 -42 -3 8 -12 15 -21 15
-8 0 -15 9 -15 20 0 11 7 20 15 20 12 0 14 7 9 26 -5 20 -3 25 7 22 9 -3 16
-25 19 -61z m3051 9 c-7 -8 -11 -20 -10 -28 2 -7 -1 -24 -6 -38 -7 -22 -9 -23
-14 -7 -4 10 -5 34 -3 53 3 26 9 34 24 34 17 0 18 -3 9 -14z m1214 4 c-3 -5
-11 -10 -16 -10 -6 0 -7 5 -4 10 3 6 11 10 16 10 6 0 7 -4 4 -10z m-4211 -45
c-3 -25 -2 -45 2 -45 5 0 10 -41 11 -90 1 -56 -1 -88 -7 -85 -6 3 -10 19 -10
35 0 16 -9 45 -21 65 -16 27 -19 38 -10 49 7 8 9 25 5 40 -4 18 -2 26 7 26 7
0 9 3 6 6 -7 7 10 44 19 44 3 0 2 -20 -2 -45z m2712 29 c18 -15 18 -15 -3 -9
-14 4 -23 2 -23 -4 0 -19 -17 -12 -23 9 -6 25 20 27 49 4z m-98 -5 c35 -2 76
-96 68 -155 -6 -49 6 -92 33 -111 23 -16 41 -85 41 -157 0 -57 8 -68 30 -41
14 17 40 20 40 5 0 -5 -7 -13 -16 -18 -14 -8 -15 -16 -4 -64 15 -67 9 -97 -29
-140 -15 -18 -31 -46 -35 -63 -4 -16 -9 -38 -12 -47 -3 -9 8 -31 27 -52 17
-20 28 -36 24 -36 -4 0 -16 11 -27 25 -22 28 -38 32 -38 11 0 -7 -8 -20 -17
-27 -11 -10 -14 -10 -9 -1 4 6 2 12 -4 12 -6 0 -13 -7 -16 -15 -4 -8 -12 -15
-20 -15 -8 0 -14 -7 -14 -15 0 -13 -40 -22 -53 -12 -2 1 -11 -4 -19 -11 -13
-10 -22 -6 -57 25 -22 21 -48 44 -56 51 -20 17 -19 38 5 62 25 25 25 35 -2 54
-19 14 -20 16 -4 22 21 8 90 -13 121 -38 26 -20 35 -15 35 23 0 22 -10 33 -50
58 -28 17 -54 31 -59 31 -5 0 -14 6 -20 13 -17 21 33 45 59 29 25 -15 30 -15
30 1 0 7 -13 26 -30 42 -28 27 -30 27 -30 8 0 -21 0 -21 -36 -2 -69 35 -74 43
-74 136 0 81 1 83 20 73 11 -6 20 -21 20 -35 0 -28 59 -80 98 -88 33 -6 70 11
78 35 4 15 12 18 35 13 47 -11 36 21 -16 46 -25 12 -42 25 -39 30 8 13 21 11
60 -7 37 -18 48 -16 39 8 -10 24 -63 48 -150 67 -64 14 -81 21 -83 37 -2 10
-9 24 -14 29 -8 7 -9 6 -4 -2 4 -7 3 -21 -3 -30 -8 -16 -11 -15 -21 11 -6 16
-9 35 -6 41 2 6 0 34 -6 61 -5 27 -10 56 -10 64 -1 8 -5 20 -10 27 -19 24 49
43 132 38 41 -3 85 -6 98 -6z m1632 7 c0 -3 -4 -8 -10 -11 -5 -3 -10 -1 -10 4
0 6 5 11 10 11 6 0 10 -2 10 -4z m-37 -23 c-7 -2 -19 -2 -25 0 -7 3 -2 5 12 5
14 0 19 -2 13 -5z m-3583 -23 c-13 -9 -13 -11 0 -21 11 -8 12 -12 3 -16 -7 -2
-13 -11 -13 -19 0 -9 5 -12 10 -9 6 3 10 2 10 -4 0 -5 -5 -11 -10 -13 -6 -2
-12 -19 -13 -38 -1 -19 -6 -40 -9 -46 -4 -6 -3 -26 2 -45 6 -19 10 -34 10 -34
0 0 -18 1 -40 3 -22 2 -40 8 -40 13 0 5 5 9 11 9 5 0 9 8 7 18 -2 11 2 25 8
33 19 22 44 107 44 144 0 27 4 35 18 35 14 0 15 -2 2 -10z m2280 -24 c0 -37
18 -98 33 -107 5 -4 6 -17 2 -29 -5 -16 -10 -19 -18 -11 -16 16 -24 13 -31
-11 -3 -13 -16 -28 -30 -34 -23 -11 -24 -11 -14 20 6 17 18 39 26 49 14 15 13
17 0 17 -9 0 -25 -15 -37 -32 l-21 -33 0 41 c0 28 5 44 15 48 8 3 15 10 15 17
0 6 -6 9 -14 6 -8 -3 -16 2 -19 13 -6 25 40 51 53 30 8 -13 10 -13 11 0 1 8 2
20 4 25 1 6 3 13 3 18 1 4 7 7 12 7 6 0 10 -15 10 -34z m-1319 2 c11 -21 11
-22 -4 -9 -10 7 -17 17 -17 22 0 15 9 10 21 -13z m2659 12 c0 -5 -4 -10 -10
-10 -5 0 -10 5 -10 10 0 6 5 10 10 10 6 0 10 -4 10 -10z m-285 -79 c-8 -13
-45 -15 -45 -2 0 5 9 7 20 4 12 -3 20 0 20 8 0 7 3 10 6 6 3 -3 3 -10 -1 -16z
m-3823 -16 c3 -14 1 -25 -5 -25 -5 0 -7 -9 -4 -20 6 -24 -8 -36 -17 -14 -8 21
-8 69 1 77 12 13 21 7 25 -18z m4054 -2 c-4 -17 0 -40 9 -57 8 -15 15 -35 15
-43 0 -13 3 -13 15 -3 8 7 25 10 39 6 18 -4 28 -1 36 11 9 14 10 3 6 -47 -5
-71 -28 -103 -67 -93 -16 5 -20 1 -19 -13 5 -45 0 -55 -22 -52 -22 3 -23 8
-24 83 -1 44 -6 94 -12 112 -11 34 -8 63 11 101 14 30 20 28 13 -5z m451 -20
c-3 -10 -5 -4 -5 12 0 17 2 24 5 18 2 -7 2 -21 0 -30z m-3067 17 c0 -5 -2 -10
-4 -10 -3 0 -8 5 -11 10 -3 6 -1 10 4 10 6 0 11 -4 11 -10z m2717 -5 c0 -8 -9
-15 -19 -15 -16 0 -17 2 -6 15 17 19 25 19 25 0z m-887 -20 c71 -36 71 -50 0
-16 -34 16 -64 32 -68 35 -14 14 23 4 68 -19z m145 -15 c1 -14 6 -33 10 -44 8
-17 7 -17 -26 -1 -38 20 -49 32 -49 58 0 15 7 18 32 15 25 -2 32 -8 33 -28z
m-1186 6 c6 -7 14 -35 17 -62 l5 -49 -22 25 c-12 14 -26 24 -30 23 -11 -3 -11
4 -3 46 7 34 15 38 33 17z m2291 -52 c0 -12 -4 -26 -10 -29 -6 -3 -10 5 -10
19 0 13 -3 33 -7 43 -6 16 -5 16 10 4 9 -7 17 -24 17 -37z m-4120 16 c0 -5 -4
-10 -9 -10 -6 0 -13 5 -16 10 -3 6 1 10 9 10 9 0 16 -4 16 -10z m300 -66 c0
-59 -13 -94 -34 -94 -13 0 -14 58 -1 118 13 55 35 40 35 -24z m-690 37 c0 -6
-4 -13 -10 -16 -5 -3 -10 1 -10 9 0 9 5 16 10 16 6 0 10 -4 10 -9z m3790 -24
c0 -5 12 -2 26 8 14 9 28 14 31 11 8 -8 -17 -36 -32 -36 -7 0 -16 -10 -19 -22
-6 -21 -7 -21 -16 -6 -6 9 -17 15 -24 12 -8 -3 -17 -1 -21 5 -3 7 3 11 17 12
18 1 16 3 -9 10 -34 10 -43 24 -21 31 16 6 68 -14 68 -25z m-3430 2 c0 -6 -4
-7 -10 -4 -5 3 -10 11 -10 16 0 6 5 7 10 4 6 -3 10 -11 10 -16z m2988 -6 c26
-25 6 -23 -29 3 -29 22 -30 25 -9 19 13 -4 30 -14 38 -22z m-132 -54 c24 -32
44 -89 43 -119 0 -8 -11 5 -24 30 -13 25 -32 54 -42 65 -10 11 -31 37 -46 58
l-29 38 37 -20 c20 -11 48 -34 61 -52z m-511 -17 c-20 -5 -27 -32 -10 -38 8
-4 22 -4 30 0 22 8 19 -20 -5 -44 -17 -17 -23 -18 -40 -8 -16 10 -19 19 -14
43 4 17 6 45 6 64 -2 50 9 58 29 20 14 -27 15 -35 4 -37z m-2397 22 c17 -3 33
-13 36 -21 3 -8 2 -12 -3 -9 -4 3 -16 -3 -26 -14 -10 -11 -26 -20 -35 -20 -16
0 -70 49 -70 63 0 9 57 9 98 1z m2986 -43 c-6 -6 -24 19 -24 34 1 6 7 1 15 -9
8 -11 12 -22 9 -25z m1213 -13 c-3 -8 -6 -5 -6 6 -1 11 2 17 5 13 3 -3 4 -12
1 -19z m-1767 -108 c0 -5 -4 -10 -10 -10 -5 0 -10 5 -10 10 0 6 5 10 10 10 6
0 10 -4 10 -10z m1310 1 c0 -5 -9 -12 -20 -16 -11 -3 -19 -9 -19 -13 4 -22 -4
-29 -26 -25 -21 5 -22 7 -10 20 8 8 15 18 15 23 0 8 21 16 48 19 6 0 12 -3 12
-8z m459 -133 c-1 -68 -7 -161 -15 -208 -7 -47 -13 -132 -13 -189 0 -57 -3
-106 -6 -109 -3 -3 -5 12 -5 34 -1 21 -7 57 -15 79 -10 28 -11 41 -3 46 8 5 8
20 -2 53 -7 25 -10 60 -6 78 3 18 2 48 -3 66 -8 27 -7 32 8 32 26 0 31 9 20
38 -7 17 -6 29 1 36 16 16 12 57 -7 72 -17 12 -17 14 -1 26 9 7 22 25 27 41 6
15 13 27 16 27 3 0 5 -55 4 -122z m-4415 28 c-4 -55 -2 -91 5 -105 8 -14 8
-21 1 -21 -22 0 -8 -19 18 -23 21 -3 18 -4 -12 -6 l-39 -1 7 93 c7 93 15 147
22 147 3 0 2 -38 -2 -84z m2219 -3 c-7 -2 -19 -2 -25 0 -7 3 -2 5 12 5 14 0
19 -2 13 -5z m-1643 -145 c0 -5 6 -8 14 -8 26 0 28 -20 4 -29 -16 -7 -18 -10
-6 -10 9 -1 20 -5 23 -11 4 -6 -17 -10 -54 -10 l-61 0 0 39 c0 38 0 38 40 37
22 0 40 -4 40 -8z m1193 -168 c-10 -11 -22 -20 -27 -20 -5 0 -1 9 9 20 10 11
22 20 26 20 5 0 1 -9 -8 -20z m667 -37 c0 -13 -71 -86 -77 -80 -6 7 57 87 69
87 4 0 8 -3 8 -7z m275 -184 c4 -10 9 -18 13 -17 14 4 118 -55 153 -87 20 -18
58 -40 85 -50 107 -40 412 -195 464 -236 30 -24 63 -48 74 -54 19 -11 51 -75
36 -75 -4 0 -10 6 -12 12 -3 7 -13 13 -24 13 -12 0 -20 8 -22 23 -2 12 -9 22
-15 22 -7 0 -28 13 -47 28 -33 27 -223 142 -234 142 -3 0 -29 11 -58 24 -69
30 -87 37 -126 46 -27 7 -32 5 -28 -6 3 -8 2 -14 -3 -14 -11 0 -36 31 -44 53
-4 9 -13 17 -21 17 -7 0 -21 11 -30 25 -22 34 -33 31 -29 -7 l4 -33 -20 25
c-12 14 -36 46 -53 72 -18 26 -37 48 -41 48 -5 0 -1 -10 7 -22 9 -12 16 -29
15 -38 0 -11 -2 -11 -6 -2 -3 7 -16 17 -30 23 -13 5 -21 13 -18 19 7 11 -25
64 -33 55 -11 -10 -72 59 -72 81 0 13 -4 26 -10 29 -5 3 -10 11 -10 17 0 15
129 -112 135 -133z m-3644 68 c-16 -16 -13 -53 4 -67 9 -7 13 -15 10 -18 -14
-14 -45 34 -45 69 0 33 2 36 21 32 14 -4 17 -9 10 -16z m2614 -46 c-3 -6 -11
-11 -17 -11 -6 0 -6 6 2 15 14 17 26 13 15 -4z m931 -11 c-1 -16 -4 -30 -8
-30 -10 0 -20 38 -13 50 12 19 22 10 21 -20z m-999 -71 c-19 -30 -48 -71 -65
-91 -16 -21 -40 -62 -52 -93 -36 -88 -47 -70 -18 28 9 30 9 40 -1 46 -8 6 8
24 52 58 35 28 74 64 88 80 36 46 34 32 -4 -28z m2397 -40 c57 -19 66 -25 81
-60 16 -36 17 -49 5 -161 -10 -94 -18 -134 -37 -171 -22 -41 -25 -58 -23 -130
4 -108 2 -139 -9 -133 -4 3 -6 -6 -3 -19 2 -15 0 -25 -8 -25 -7 0 -9 -8 -5
-21 6 -18 4 -20 -16 -14 -19 6 -21 5 -14 -11 14 -32 19 -87 7 -80 -12 7 -22
-16 -22 -55 0 -18 -4 -28 -10 -24 -10 6 -11 -3 -14 -68 -2 -37 -39 -65 -80
-61 -17 1 -35 3 -39 3 -5 1 -5 10 -2 21 5 14 2 20 -9 20 -13 0 -12 4 4 20 15
15 18 25 10 44 -5 13 -6 26 -4 29 7 7 9 251 2 263 -3 5 -6 42 -7 83 0 40 -5
79 -11 86 -16 19 -22 141 -10 186 14 52 18 178 5 183 -5 3 -2 5 7 5 19 1 31
31 22 55 -4 11 -1 16 10 16 8 0 13 6 10 13 -3 9 7 14 33 15 20 2 39 5 42 7 7
8 18 6 85 -16z m-2554 -74 c0 -3 -31 -38 -70 -77 -38 -40 -70 -76 -70 -80 0
-4 -4 -8 -9 -8 -12 0 -8 31 7 58 8 13 9 22 3 22 -19 0 -84 -42 -103 -66 -11
-13 -28 -24 -38 -24 -32 0 -49 -11 -43 -28 3 -12 2 -13 -4 -5 -14 19 -105 -30
-159 -84 -28 -29 -44 -39 -44 -29 0 26 109 107 230 172 277 149 300 160 300
149z m-1540 -35 c0 -5 -7 -10 -15 -10 -8 0 -15 5 -15 10 0 6 7 10 15 10 8 0
15 -4 15 -10z m274 -55 c10 -8 16 -18 15 -23 -2 -6 -19 3 -38 18 -34 29 -15
33 23 5z m4781 -45 c-16 -16 -34 -30 -39 -30 -12 1 49 60 61 60 4 0 -6 -13
-22 -30z m-600 -21 c10 -15 4 -18 -51 -25 l-49 -6 30 21 c33 23 60 27 70 10z
m109 -4 c-10 -8 -26 -14 -34 -14 -11 0 -10 3 4 14 11 8 27 15 35 15 11 0 10
-4 -5 -15z m-220 -10 c-4 -8 -10 -12 -16 -9 -5 3 -15 -2 -22 -11 -7 -10 -19
-16 -26 -13 -8 2 0 12 21 26 40 26 50 27 43 7z m-4054 -233 c5 -20 10 -62 10
-92 0 -39 7 -67 24 -96 22 -39 23 -45 11 -95 -8 -30 -17 -90 -21 -134 -6 -58
-9 -69 -12 -42 -3 30 -7 37 -19 33 -9 -4 -28 7 -48 26 -18 18 -47 41 -64 51
l-31 18 9 -24 c9 -22 6 -27 -19 -37 -16 -7 -33 -9 -39 -6 -13 8 -25 108 -16
135 8 27 25 17 25 -15 0 -19 5 -24 25 -24 14 0 25 4 25 8 0 4 16 6 35 4 29 -4
40 1 65 28 16 18 30 36 30 41 0 5 7 9 15 9 19 0 19 24 0 40 -11 9 -36 11 -81
7 -61 -4 -124 8 -124 25 0 4 8 11 18 17 16 9 16 10 0 16 -10 4 -18 12 -18 18
0 6 3 8 6 5 3 -4 15 3 27 15 13 13 17 22 9 25 -7 2 -12 17 -12 33 0 22 7 32
30 44 17 9 35 13 39 10 5 -3 20 -1 33 4 33 12 55 -3 68 -47z m4328 -18 c7 -14
9 -42 6 -64 -6 -35 -3 -43 25 -69 24 -22 31 -38 31 -65 0 -22 5 -36 13 -36 16
0 40 -38 32 -50 -4 -6 -2 -10 4 -10 12 0 24 37 16 50 -3 5 -13 10 -21 10 -21
0 -17 38 5 49 16 9 20 6 25 -22 16 -77 15 -95 -4 -118 -11 -12 -20 -26 -20
-31 0 -4 -7 -8 -15 -8 -8 0 -15 -3 -16 -7 0 -5 -1 -24 -3 -44 -2 -20 -12 -50
-24 -67 -12 -16 -22 -33 -22 -37 0 -11 -52 -75 -61 -75 -5 0 -9 11 -9 24 0 14
-4 28 -10 31 -5 3 -10 15 -10 25 0 23 -34 43 -59 35 -26 -8 -51 4 -51 25 0 9
-9 29 -20 43 -16 20 -20 40 -20 106 0 65 3 81 15 81 8 0 15 -4 15 -9 0 -4 11
-20 25 -35 32 -34 82 -37 87 -3 2 16 11 23 31 25 30 4 37 28 10 35 -13 3 -11
5 7 7 22 1 20 3 -14 16 -23 8 -53 12 -73 8 -23 -4 -33 -2 -33 6 0 7 -6 10 -14
7 -12 -5 -14 5 -11 49 1 30 -1 57 -6 60 -15 9 -10 24 9 25 14 0 14 2 -3 8 -19
8 -19 9 5 19 94 40 142 42 158 6z m-4154 -9 c3 -8 1 -15 -4 -15 -6 0 -10 7
-10 15 0 8 2 15 4 15 2 0 6 -7 10 -15z m36 -76 c0 -5 25 -62 56 -127 72 -151
137 -304 155 -364 7 -27 17 -48 21 -48 4 0 7 -15 7 -32 -1 -35 18 -94 27 -85
3 3 0 15 -6 27 -6 12 -9 24 -6 27 8 8 35 -59 29 -73 -2 -7 0 -15 6 -19 14 -8
14 -75 1 -75 -6 0 -15 11 -19 24 -5 13 -17 26 -26 30 -11 4 -14 12 -10 26 4
12 2 20 -5 20 -6 0 -10 6 -8 13 4 18 -32 107 -43 107 -6 0 -9 6 -7 13 1 6 -4
34 -12 60 -13 41 -18 48 -36 44 -16 -3 -21 0 -17 10 3 8 -3 24 -14 36 -24 27
-37 56 -34 79 1 9 -7 19 -19 23 -11 4 -20 12 -19 18 2 12 -8 60 -18 87 -4 8
-5 19 -4 24 1 4 -5 19 -14 32 -8 13 -15 33 -15 44 0 16 -4 20 -19 15 -14 -4
-20 1 -25 20 -4 14 -11 25 -16 25 -6 0 -10 5 -10 10 0 17 38 11 44 -7 2 -10 2
2 0 26 l-5 43 30 -22 c17 -12 31 -26 31 -31z m-85 -108 c7 -42 -21 -131 -44
-139 -18 -6 -7 73 14 94 19 20 19 44 -1 72 -8 12 -12 27 -8 34 10 16 31 -16
39 -61z m614 -56 c0 -35 -5 -58 -19 -75 -11 -14 -20 -31 -20 -37 0 -7 -3 -13
-7 -13 -5 0 -6 41 -4 92 2 71 7 95 20 104 21 16 29 -3 30 -71z m-1319 25 c0
-11 -4 -20 -10 -20 -5 0 -10 9 -10 20 0 11 5 20 10 20 6 0 10 -9 10 -20z m30
-61 c0 -6 -4 -7 -10 -4 -5 3 -10 11 -10 16 0 6 5 7 10 4 6 -3 10 -11 10 -16z
m455 -105 c28 -18 33 -44 9 -44 -9 0 -12 5 -8 12 4 7 3 8 -4 4 -7 -4 -12 -13
-12 -21 0 -7 -7 -15 -15 -19 -8 -3 -15 -1 -15 4 0 6 4 10 10 10 6 0 6 9 0 26
-9 23 -6 44 6 44 3 0 16 -7 29 -16z m-385 -79 c-7 -8 -17 -15 -22 -15 -6 0 -5
7 2 15 7 8 17 15 22 15 6 0 5 -7 -2 -15z m400 -40 c0 -25 -4 -35 -15 -35 -24
0 -29 29 -10 50 24 26 25 26 25 -15z m40 31 c0 -3 -4 -8 -10 -11 -5 -3 -10 -1
-10 4 0 6 5 11 10 11 6 0 10 -2 10 -4z m86 -87 c25 -27 17 -69 -19 -103 -45
-41 -117 -80 -117 -62 0 8 7 19 15 26 9 7 14 18 12 24 -2 6 1 16 7 23 32 36
37 46 41 75 2 17 9 36 14 41 6 6 11 22 12 37 1 21 2 20 11 -10 5 -19 16 -42
24 -51z m4198 45 c31 -12 15 -25 -26 -22 -49 4 -66 28 -20 28 17 0 37 -3 46
-6z m-3608 -41 c-8 -15 -15 -22 -16 -15 0 17 20 55 27 49 2 -3 -2 -18 -11 -34z
m-286 -4 c0 -6 -4 -7 -10 -4 -5 3 -10 11 -10 16 0 6 5 7 10 4 6 -3 10 -11 10
-16z m3151 4 c13 -16 12 -17 -3 -4 -10 7 -18 15 -18 17 0 8 8 3 21 -13z m904
7 c-3 -5 3 -18 15 -30 11 -11 20 -26 19 -32 0 -7 -7 -3 -16 10 -20 29 -33 28
-33 -4 0 -28 -16 -64 -29 -64 -5 0 -11 15 -14 33 -4 26 1 38 26 65 31 32 44
41 32 22z m-4485 -10 c0 -5 -5 -10 -11 -10 -5 0 -7 5 -4 10 3 6 8 10 11 10 2
0 4 -4 4 -10z m3798 -21 c49 -13 64 -34 58 -81 -3 -27 -9 -34 -36 -42 -18 -6
-48 -25 -66 -43 -35 -35 -46 -41 -39 -20 3 6 -5 17 -17 22 -13 6 -30 25 -40
43 -9 18 -23 41 -31 50 -16 18 -18 73 -4 83 13 9 125 1 175 -12z m521 -9 c9
-5 5 -9 -14 -14 -26 -7 -55 7 -55 25 0 10 44 2 69 -11z m-4354 -29 c3 -5 1
-12 -5 -16 -5 -3 -10 1 -10 9 0 18 6 21 15 7z m228 -88 c-10 -14 -30 -44 -44
-65 l-26 -40 -12 33 c-10 28 -9 34 4 42 33 18 85 70 86 86 1 9 4 6 6 -7 3 -13
-4 -35 -14 -49z m4374 -5 c15 -40 30 -77 32 -81 2 -5 -11 -1 -28 7 -24 13 -31
23 -30 44 1 15 -3 40 -10 55 -13 34 -14 47 -2 47 5 0 22 -33 38 -72z m-187 43
c0 -12 -20 -25 -27 -18 -7 7 6 27 18 27 5 0 9 -4 9 -9z m-298 -121 c9 -28 13
-50 9 -50 -9 0 -41 66 -41 85 0 31 16 13 32 -35z m-4019 20 c-3 -11 4 -37 15
-58 14 -27 17 -43 10 -55 -13 -25 -28 -21 -28 8 0 14 -7 37 -16 51 -14 20 -15
30 -6 49 14 30 32 33 25 5z m541 -132 c-5 -7 -23 -32 -41 -56 -18 -24 -33 -51
-33 -60 0 -9 -5 -24 -11 -32 -8 -11 -9 -7 -5 18 7 43 31 93 57 121 21 23 45
29 33 9z m4064 -6 c6 -18 -15 -14 -22 4 -4 10 -1 14 6 12 6 -2 14 -10 16 -16z
m-895 1 c3 -5 1 -17 -3 -28 -6 -17 -7 -16 -12 8 -5 25 5 37 15 20z m397 -51
c0 -21 -2 -24 -10 -12 -13 20 -13 53 0 45 6 -3 10 -18 10 -33z m475 28 c18 -8
17 -9 -7 -9 -15 -1 -30 4 -33 9 -7 12 12 12 40 0z m-4285 -80 c0 -5 -5 -10
-11 -10 -5 0 -7 5 -4 10 3 6 8 10 11 10 2 0 4 -4 4 -10z m60 0 c0 -5 -2 -10
-4 -10 -3 0 -8 5 -11 10 -3 6 -1 10 4 10 6 0 11 -4 11 -10z m-635 -20 c3 -5 1
-10 -4 -10 -6 0 -11 5 -11 10 0 6 2 10 4 10 3 0 8 -4 11 -10z m775 -39 c0 -20
-13 -41 -25 -41 -7 0 -22 -19 -33 -43 -20 -42 -48 -74 -57 -65 -7 7 46 109 54
104 4 -3 7 5 7 17 -1 12 4 22 11 22 6 0 15 3 19 8 10 10 24 9 24 -2z m-145
-71 c3 -5 1 -10 -4 -10 -6 0 -11 5 -11 10 0 6 2 10 4 10 3 0 8 -4 11 -10z
m-253 -82 c-9 -9 -12 -7 -12 12 0 19 3 21 12 12 9 -9 9 -15 0 -24z m278 -54
c0 -8 -4 -14 -10 -14 -5 0 -10 9 -10 21 0 11 5 17 10 14 6 -3 10 -13 10 -21z
m-83 -156 c-3 -8 -6 -5 -6 6 -1 11 2 17 5 13 3 -3 4 -12 1 -19z m118 12 c3 -5
-1 -10 -9 -10 -9 0 -16 5 -16 10 0 6 4 10 9 10 6 0 13 -4 16 -10z m4360 -49
c3 -5 1 -12 -4 -15 -5 -3 -11 1 -15 9 -6 16 9 21 19 6z m-5699 -28 c4 -10 6
-72 5 -138 -1 -66 3 -165 10 -220 6 -55 12 -113 12 -130 0 -48 -54 -177 -99
-236 -23 -30 -64 -97 -91 -149 -27 -52 -61 -107 -75 -121 l-26 -26 -6 51 c-3
27 -12 57 -21 65 -13 14 -15 11 -15 -27 0 -23 -4 -42 -8 -42 -16 0 -42 72 -42
118 0 69 29 249 51 310 11 30 19 74 19 98 0 25 7 59 16 75 12 23 13 38 5 59
-8 25 -6 31 15 44 13 9 31 27 39 40 14 22 14 28 1 60 l-15 36 29 0 c31 0 67
36 100 101 18 34 31 42 76 48 7 0 15 -7 20 -16z m1174 -58 c-30 -32 -36 -26
-15 15 12 24 20 29 28 21 8 -8 4 -18 -13 -36z m2650 -198 c0 -5 -7 -4 -15 3
-8 7 -15 20 -15 29 1 13 3 13 15 -3 8 -11 15 -24 15 -29z m750 -111 c-1 -44
-44 -44 -61 1 -8 23 -7 30 8 41 16 11 20 10 36 -9 9 -12 17 -26 17 -33z
m-3401 -54 c-30 -32 -57 -55 -60 -49 -4 5 17 30 45 55 28 26 53 51 55 55 1 5
5 6 8 3 3 -3 -19 -32 -48 -64z m-42 36 c-3 -8 -6 -5 -6 6 -1 11 2 17 5 13 3
-3 4 -12 1 -19z m1560 -74 c-3 -3 -12 -4 -19 -1 -8 3 -5 6 6 6 11 1 17 -2 13
-5z m-712 -24 c0 -7 -6 -15 -12 -17 -8 -3 -13 4 -13 17 0 13 5 20 13 18 6 -3
12 -11 12 -18z m3866 -88 c19 -18 18 -52 -1 -52 -25 0 -49 47 -33 63 9 10 12
9 34 -11z m-1395 -59 c-7 -7 -26 7 -26 19 0 6 6 6 15 -2 9 -7 13 -15 11 -17z
m-171 -61 c80 -55 169 -161 152 -179 -3 -2 -38 1 -79 7 -96 16 -132 11 -136
-16 -2 -16 2 -22 15 -20 13 1 17 -5 15 -23 -1 -13 5 -33 15 -43 9 -10 17 -28
18 -39 1 -12 6 -24 12 -27 5 -4 13 -19 17 -34 3 -16 13 -28 21 -28 17 0 20
-16 6 -24 -5 -4 -19 10 -31 29 -22 35 -23 35 -42 18 -19 -17 -20 -17 -39 7
-10 14 -19 37 -19 53 0 27 -13 36 -25 17 -10 -17 -25 -11 -37 14 -8 19 -7 40
3 85 11 50 17 61 34 61 16 0 20 7 22 38 2 24 -3 41 -13 49 -17 12 -33 70 -27
90 7 20 63 3 118 -35z m232 -18 c-5 -5 -47 49 -47 61 0 4 12 -8 26 -25 15 -17
24 -33 21 -36z m1628 -54 c8 -13 -5 -13 -25 0 -13 8 -13 10 2 10 9 0 20 -4 23
-10z m-5074 -97 c-10 -17 -10 -17 -11 2 0 11 4 31 8 45 l7 25 3 -27 c2 -15 -1
-35 -7 -45z m444 -18 l40 -14 -47 2 c-27 1 -48 4 -48 8 0 4 11 19 14 19 1 0
19 -7 41 -15z m-1585 -36 c0 -20 -24 -26 -35 -9 -4 6 -4 17 -1 25 7 20 36 7
36 -16z m1137 -16 c-3 -10 -5 -4 -5 12 0 17 2 24 5 18 2 -7 2 -21 0 -30z
m3328 1 l70 -14 -67 6 c-37 3 -80 9 -95 14 -27 8 -27 8 -3 8 14 0 57 -6 95
-14z m1675 -15 c30 -11 63 -23 73 -26 29 -9 29 -10 -80 -249 -8 -17 -26 -42
-40 -55 -26 -24 -23 -9 4 23 17 19 24 76 11 84 -5 3 -6 14 -3 25 4 11 2 19 -5
19 -8 0 -10 9 -6 24 3 14 1 28 -5 32 -6 3 -8 16 -5 27 3 12 0 27 -6 34 -7 9
-7 17 0 26 7 8 7 18 2 27 -7 11 -5 30 3 30 1 0 27 -9 57 -21z m580 11 c13 -9
13 -10 0 -10 -8 0 -22 5 -30 10 -13 9 -13 10 0 10 8 0 22 -5 30 -10z m-5060
-20 c0 -5 -4 -10 -10 -10 -5 0 -10 5 -10 10 0 6 5 10 10 10 6 0 10 -4 10 -10z
m2938 3 c-10 -2 -28 -2 -40 0 -13 2 -5 4 17 4 22 1 32 -1 23 -4z m-2888 -13
c8 -5 12 -12 9 -15 -8 -8 -39 5 -39 16 0 11 11 11 30 -1z m2940 6 c0 -11 -19
-15 -25 -6 -3 5 1 10 9 10 9 0 16 -2 16 -4z m131 -49 c3 -21 3 -37 -2 -37 -9
0 -23 31 -20 47 1 7 -11 15 -26 19 -49 10 -49 13 -3 10 43 -3 45 -4 51 -39z
m202 -15 c9 -29 21 -48 31 -50 19 -4 63 45 58 65 -3 15 24 18 32 4 8 -13 -42
-71 -71 -82 -31 -12 -58 3 -79 42 -16 32 -12 85 6 74 5 -3 16 -27 23 -53z
m-323 -4 c0 -6 -6 -5 -15 2 -8 7 -15 14 -15 16 0 2 7 1 15 -2 8 -4 15 -11 15
-16z m-3523 -10 c-3 -8 -6 -5 -6 6 -1 11 2 17 5 13 3 -3 4 -12 1 -19z m512 8
c-15 -13 -49 -25 -49 -17 0 5 8 12 18 14 24 6 36 8 31 3z m-434 -44 c-16 -27
-16 -31 0 -61 20 -40 13 -52 -10 -17 -10 14 -21 23 -26 20 -18 -11 -9 -51 17
-75 14 -13 33 -37 41 -54 11 -23 3 -18 -36 24 l-52 55 14 60 c10 47 19 64 37
73 32 16 35 10 15 -25z m4106 28 c31 0 39 -4 39 -18 0 -22 -50 -72 -73 -72
-21 0 -37 30 -37 70 0 25 3 31 16 26 9 -3 33 -6 55 -6z m622 -15 c31 -8 64
-12 74 -8 14 5 15 3 6 -7 -9 -10 -31 -10 -109 -1 -53 6 -104 16 -113 21 -26
15 77 12 142 -5z m1077 11 c0 -2 -7 -6 -15 -10 -8 -3 -15 -1 -15 4 0 6 7 10
15 10 8 0 15 -2 15 -4z m-5439 -39 c-8 -8 -11 -7 -11 4 0 20 13 34 18 19 3 -7
-1 -17 -7 -23z m3955 -43 c-4 -13 -13 -24 -21 -24 -11 0 -12 5 -6 23 5 12 13
31 17 42 7 19 7 19 11 2 3 -10 2 -29 -1 -43z m-3626 19 c0 -10 3 -29 6 -43 6
-24 6 -25 -9 -5 -18 22 -23 65 -7 65 6 0 10 -8 10 -17z m2946 -40 c-4 -4 -16
3 -26 17 -29 37 -24 49 7 18 15 -15 23 -31 19 -35z m1198 5 c7 -5 -15 -32 -61
-76 -40 -38 -73 -72 -73 -75 0 -4 -19 -26 -43 -50 -48 -47 -137 -93 -161 -84
-19 8 -21 27 -3 27 20 0 51 37 38 45 -6 3 -52 12 -103 20 -88 13 -94 13 -112
-5 -10 -10 -16 -22 -12 -28 6 -11 77 -25 124 -24 36 1 42 -12 11 -28 -15 -8
-24 -8 -34 0 -8 7 -19 9 -26 5 -6 -4 -28 -9 -49 -10 -25 -2 -49 -13 -70 -32
-17 -15 -41 -31 -53 -35 -24 -7 -197 -10 -197 -4 0 22 14 32 37 28 27 -5 28
-2 8 53 -4 11 2 5 14 -12 22 -35 45 -43 54 -19 4 9 14 12 26 9 15 -4 21 -1 21
11 0 9 8 16 20 16 24 0 25 12 3 48 l-16 27 27 -27 c31 -32 44 -35 54 -10 4 9
14 17 22 17 9 0 15 9 14 23 0 16 4 21 14 17 8 -3 16 3 19 15 3 11 11 20 18 20
7 0 15 9 18 20 3 11 10 20 16 20 16 0 14 -15 -4 -30 -24 -20 -17 -39 18 -45
170 -28 197 -31 211 -23 9 5 16 15 16 23 0 7 10 15 22 17 12 2 28 14 35 27 6
13 19 28 27 33 9 5 16 15 16 23 0 8 9 19 20 25 11 6 20 18 20 27 0 9 12 30 28
46 l27 29 4 -24 c1 -13 8 -26 15 -30z m-1610 -19 c-10 -16 -24 -9 -24 12 0 18
2 19 15 9 8 -7 12 -16 9 -21z m1152 15 c18 -14 18 -14 -6 -3 -31 14 -36 19
-24 19 6 0 19 -7 30 -16z m-3538 -91 c24 -36 42 -66 40 -69 -12 -12 -78 61
-92 103 -19 54 -20 76 -3 49 7 -10 32 -48 55 -83z m3597 77 c-3 -5 -11 -10
-16 -10 -6 0 -7 5 -4 10 3 6 11 10 16 10 6 0 7 -4 4 -10z m-1028 -21 c20 -6
12 -7 -31 -3 -33 3 -64 8 -70 10 -6 2 -17 0 -24 -5 -11 -7 -11 -12 -1 -28 9
-16 32 -23 98 -34 47 -7 99 -13 114 -13 18 -1 35 -10 46 -25 10 -13 23 -21 30
-17 7 5 11 -1 11 -14 0 -11 8 -24 18 -27 9 -4 22 -13 28 -21 6 -8 16 -12 22
-8 8 5 12 0 12 -13 0 -26 26 -27 53 -3 19 17 19 16 6 -5 -18 -30 1 -54 27 -32
16 13 17 10 11 -40 -4 -29 -8 -56 -11 -58 -15 -15 -106 39 -106 63 0 3 -11 16
-25 30 -15 15 -25 36 -25 54 0 18 -5 30 -13 30 -7 0 -17 8 -24 19 -14 23 -70
31 -132 19 -47 -8 -69 0 -112 43 -23 23 -59 80 -59 93 0 10 115 -1 157 -15z
m285 -20 c9 -9 14 -19 12 -22 -6 -6 -28 15 -54 48 -14 19 -14 19 5 5 11 -8 28
-22 37 -31z m1141 -15 c-26 -27 -59 -58 -73 -69 -21 -16 -20 -14 5 15 43 48
108 110 112 106 2 -2 -18 -26 -44 -52z m-537 24 l19 -21 -27 18 c-25 15 -28
16 -28 1 0 -9 -5 -16 -11 -16 -6 0 -30 -13 -54 -30 -24 -16 -48 -30 -54 -30
-6 0 -11 -5 -11 -11 0 -5 -5 -7 -11 -3 -8 4 -1 12 17 22 16 8 32 19 35 24 6 9
90 66 100 67 3 1 14 -9 25 -21z m113 -5 c9 -2 11 -7 5 -13 -7 -7 -21 -5 -42 5
-43 22 -49 36 -10 23 18 -6 39 -13 47 -15z m-929 7 c0 -5 -5 -10 -11 -10 -5 0
-7 5 -4 10 3 6 8 10 11 10 2 0 4 -4 4 -10z m805 -50 c10 -11 16 -20 13 -20 -3
0 -13 9 -23 20 -10 11 -16 20 -13 20 3 0 13 -9 23 -20z m60 2 c-3 -3 -11 0
-18 7 -9 10 -8 11 6 5 10 -3 15 -9 12 -12z m-5715 -44 c0 -38 -3 -49 -10 -38
-16 25 -11 90 7 90 2 0 3 -24 3 -52z m1340 19 c0 -6 11 -33 25 -59 19 -36 21
-46 10 -42 -17 7 -87 -50 -228 -186 -50 -47 -116 -100 -150 -118 -34 -18 -72
-40 -84 -48 -32 -20 -29 -7 15 63 48 78 80 118 89 109 10 -9 93 75 86 87 -3 6
-1 7 5 3 7 -4 25 8 43 28 17 20 38 36 46 36 8 0 11 5 7 12 -4 7 -3 8 5 4 6 -4
18 -1 25 6 8 7 33 26 55 42 33 24 39 34 35 53 -4 14 -2 23 5 23 6 0 11 -6 11
-13z m3797 -19 c-3 -8 -6 -5 -6 6 -1 11 2 17 5 13 3 -3 4 -12 1 -19z m283 -37
c0 -17 -4 -33 -10 -36 -6 -4 -10 8 -10 29 0 20 5 36 10 36 6 0 10 -13 10 -29z
m770 21 c0 -5 -9 -17 -20 -27 -23 -21 -26 -14 -8 15 13 20 28 27 28 12z
m-1336 -161 c20 -22 13 -43 -12 -39 -12 2 -18 -5 -20 -22 -2 -14 -9 -31 -14
-37 -14 -17 -9 -16 40 7 22 11 54 20 69 20 l28 0 -24 -19 c-32 -24 -22 -49 17
-47 17 1 39 9 49 19 24 21 40 22 59 3 12 -13 10 -17 -16 -36 -16 -12 -33 -32
-36 -45 -6 -26 -65 -47 -72 -26 -7 22 -21 10 -18 -16 2 -23 6 -28 25 -25 21 2
23 -1 17 -30 -3 -17 -14 -40 -23 -50 -20 -23 -75 -20 -85 5 -4 9 -13 17 -19
17 -8 0 -10 -35 -4 -132 l7 -133 -89 -49 c-108 -59 -123 -61 -600 -75 -335
-10 -344 -10 -397 10 l-53 21 -5 70 c-7 93 -25 109 -118 106 l-65 -3 3 -60 c4
-68 13 -83 50 -87 24 -3 27 -7 27 -38 l0 -35 -205 -6 c-113 -4 -296 -10 -407
-13 l-203 -7 0 35 c0 34 2 36 33 36 21 0 41 8 51 19 16 18 16 21 1 51 -15 28
-20 31 -47 26 -17 -3 -70 -6 -118 -6 -83 0 -87 -1 -100 -26 -19 -35 -3 -58 46
-64 35 -4 39 -8 42 -36 3 -28 0 -32 -29 -38 -17 -3 -78 -6 -135 -6 l-104 0 0
34 c0 28 4 35 22 38 18 2 39 39 111 193 49 105 96 209 105 231 14 39 19 42 60
48 25 3 87 6 138 6 87 0 94 -1 94 -20 0 -11 47 -115 105 -230 l105 -210 46 4
c74 8 74 8 74 190 0 182 -7 206 -61 206 -26 0 -29 3 -29 34 l0 34 173 6 c351
13 428 12 488 -7 l57 -18 4 -77 c3 -42 1 -82 -4 -88 -4 -6 -33 -19 -63 -29
-30 -11 -54 -24 -52 -29 2 -5 30 -17 63 -26 83 -22 84 -24 84 -85 0 -66 21
-85 91 -85 77 0 80 8 72 203 -7 180 -10 191 -61 192 -24 0 -27 4 -27 35 l0 35
305 9 305 8 95 -37 c52 -20 103 -44 113 -52 16 -15 17 -14 17 19 0 44 -22 64
-122 109 -78 35 -111 70 -88 93 7 7 10 5 10 -6 0 -41 45 -31 53 11 5 22 12 29
32 29 14 0 25 -4 25 -9 0 -5 11 -9 25 -9 16 0 25 6 25 15 0 22 43 19 64 -4z
m367 -58 c13 -16 12 -17 -3 -4 -10 7 -18 15 -18 17 0 8 8 3 21 -13z m71 -5
c-7 -7 -12 -8 -12 -2 0 14 12 26 19 19 2 -3 -1 -11 -7 -17z m-3167 -56 c-8 -8
-25 10 -25 26 0 13 2 13 14 -4 8 -10 13 -21 11 -22z m2845 28 c0 -5 -2 -10 -4
-10 -3 0 -8 5 -11 10 -3 6 -1 10 4 10 6 0 11 -4 11 -10z m240 6 c0 -3 -4 -8
-10 -11 -5 -3 -10 -1 -10 4 0 6 5 11 10 11 6 0 10 -2 10 -4z m231 -76 c47 -43
50 -49 63 -125 14 -85 6 -134 -13 -82 -6 16 -11 39 -11 53 0 17 -5 24 -20 24
-11 0 -20 5 -20 10 0 6 -10 10 -22 10 -21 0 -21 0 -2 14 17 13 21 13 36 -7 15
-20 17 -20 23 -4 8 19 -10 47 -30 47 -8 0 -16 14 -20 30 -4 17 -13 30 -20 30
-7 0 -15 8 -17 17 -3 15 -4 15 -20 -1 -16 -15 -18 -16 -18 -1 0 8 7 18 15 21
8 4 15 14 16 23 0 13 2 13 6 1 3 -8 27 -35 54 -60z m688 38 c15 -5 28 -4 37 2
7 6 28 10 46 8 l33 -3 3 -77 3 -78 -35 0 c-19 0 -37 4 -40 9 -4 5 -35 25 -70
45 -57 32 -72 36 -133 36 -76 -1 -103 -14 -103 -53 0 -34 40 -47 141 -47 72 0
87 -4 173 -44 l94 -44 7 -92 c4 -50 6 -93 4 -94 -2 -2 -41 -24 -86 -49 l-82
-45 -149 -7 c-108 -5 -160 -4 -187 5 -27 9 -40 9 -48 1 -6 -6 -26 -11 -44 -11
l-33 0 -2 70 c-1 39 -2 80 -2 93 -1 19 5 22 38 25 26 2 42 -1 47 -11 5 -7 44
-35 88 -61 68 -40 87 -47 128 -45 66 3 115 33 111 67 -4 39 -40 52 -139 52
-82 0 -92 3 -183 45 l-96 45 -2 70 c-1 39 -2 78 -2 87 -1 12 27 32 89 65 l90
47 115 3 c119 3 149 1 189 -14z m-949 3 c0 -6 -4 -13 -10 -16 -5 -3 -10 1 -10
9 0 9 5 16 10 16 6 0 10 -4 10 -9z m77 -53 c-1 -14 6 -26 20 -33 13 -7 31 -19
40 -27 10 -9 24 -13 31 -11 7 3 12 -4 12 -19 0 -12 5 -30 10 -38 9 -13 11 -13
21 0 9 12 9 11 4 -5 -4 -11 -7 -35 -6 -54 2 -29 0 -32 -13 -22 -8 7 -27 33
-41 57 -14 24 -29 44 -33 44 -5 0 -23 -16 -42 -35 -19 -19 -37 -35 -40 -35 -4
0 -12 11 -18 24 -10 22 -8 28 18 50 31 25 37 49 20 76 -7 11 -19 5 -63 -35
-30 -28 -55 -56 -56 -63 -1 -7 10 -28 24 -46 30 -39 31 -57 6 -73 -16 -10 -22
-7 -43 25 -17 26 -30 36 -46 35 -26 -3 -25 -5 -11 38 20 60 55 96 109 114 28
9 55 25 60 36 15 26 40 25 37 -3z m-209 -30 c17 -17 15 -33 -3 -18 -8 6 -19 9
-24 5 -7 -3 -8 0 -5 9 7 19 16 20 32 4z m-2638 -129 l0 -110 -42 3 c-38 3 -43
6 -44 27 -2 34 -87 113 -117 109 -19 -3 -22 -9 -21 -48 1 -25 2 -104 3 -177 1
-153 6 -163 77 -163 43 0 44 0 44 -34 0 -34 0 -35 -52 -40 -29 -3 -133 -7
-230 -9 l-178 -2 0 31 c0 30 3 33 43 39 23 4 48 12 55 17 13 11 15 158 3 298
-5 65 -9 75 -26 78 -29 4 -103 -74 -107 -113 -3 -27 -7 -30 -44 -33 -39 -3
-42 -1 -48 29 -6 30 -9 177 -3 181 1 0 148 6 327 13 179 6 333 12 343 13 15 2
17 -9 17 -109z m-870 71 c23 -7 36 -7 38 0 2 5 21 10 43 10 l39 0 0 -80 0 -80
-31 0 c-17 0 -45 11 -62 24 -63 47 -114 66 -177 66 -66 0 -110 -20 -110 -50 0
-34 30 -44 139 -51 99 -5 112 -9 194 -49 l88 -43 -3 -96 -3 -96 -80 -45 -80
-44 -153 -4 c-93 -2 -166 1 -184 7 -21 7 -35 8 -43 1 -7 -6 -118 -13 -259 -17
l-246 -6 0 36 c0 36 1 37 40 37 49 0 67 24 48 65 l-12 26 -119 -2 c-113 -2
-119 -3 -134 -26 -25 -37 -4 -73 42 -73 29 0 36 -4 41 -26 4 -14 3 -29 -2 -34
-5 -4 -65 -10 -134 -12 l-125 -3 -3 37 c-3 31 0 37 20 40 19 2 39 39 125 222
57 121 103 225 103 233 0 10 20 13 83 13 45 0 106 3 135 6 36 4 52 3 52 -5 0
-6 48 -110 107 -231 93 -193 109 -220 130 -220 22 0 23 4 23 60 l0 60 36 0
c21 0 42 -6 48 -15 6 -8 47 -35 91 -60 62 -35 89 -45 125 -45 62 0 110 30 110
69 0 38 -13 43 -140 51 -95 6 -113 11 -192 48 l-88 42 0 87 0 88 88 47 87 46
135 1 c74 1 151 -4 170 -9z m4606 -5 c15 -11 16 -14 3 -15 -8 0 -24 7 -35 15
-15 11 -16 14 -3 15 8 0 24 -7 35 -15z m-5992 -51 c71 -18 76 -26 76 -119 l0
-43 -59 -23 c-32 -13 -59 -28 -60 -33 -1 -5 31 -18 71 -28 40 -11 73 -20 74
-21 1 -1 4 -47 6 -102 l3 -99 -80 -24 c-72 -21 -109 -24 -365 -32 -157 -4
-288 -6 -292 -3 -5 2 -8 17 -8 34 0 24 4 29 24 29 51 0 56 18 56 194 0 159 -1
163 -24 185 -17 16 -31 21 -46 16 -20 -6 -21 -4 -18 32 l3 38 145 5 c312 12
429 11 494 -6z m4928 -136 c21 -32 42 -58 46 -58 4 0 21 14 39 30 38 36 49 37
64 8 10 -19 7 -25 -26 -52 -32 -28 -35 -34 -26 -57 5 -15 16 -29 25 -32 23 -9
8 -39 -16 -31 -10 3 -25 0 -33 -6 -11 -9 -15 -9 -15 -1 0 6 5 11 10 11 17 0
11 40 -7 47 -40 15 -82 72 -97 133 -16 61 -21 113 -9 80 3 -8 24 -41 45 -72z
m240 47 c26 -40 34 -42 61 -18 18 17 19 17 12 -22 -4 -22 -18 -55 -32 -73 -13
-17 -21 -37 -17 -44 5 -8 2 -9 -10 -5 -10 4 -26 -2 -41 -15 -23 -20 -75 -34
-75 -20 0 3 21 28 47 54 41 42 46 51 35 66 -34 48 -45 81 -32 97 18 22 27 19
52 -20z m185 -17 c-3 -8 -6 -5 -6 6 -1 11 2 17 5 13 3 -3 4 -12 1 -19z m530
-94 c5 -15 -21 -53 -31 -43 -7 7 6 59 15 59 6 0 12 -7 16 -16z m-797 -138 c0
-3 -4 -8 -10 -11 -5 -3 -10 -1 -10 4 0 6 5 11 10 11 6 0 10 -2 10 -4z m210
-15 c0 -5 -8 -19 -19 -32 -16 -20 -21 -22 -35 -10 -21 17 -42 1 -32 -24 7 -19
55 -13 93 12 29 19 29 11 0 -21 -13 -13 -36 -28 -53 -32 -16 -4 -33 -13 -39
-20 -5 -7 -17 -14 -25 -15 -20 -3 -70 11 -68 20 2 17 -4 30 -22 51 -22 26 -27
45 -8 34 18 -12 54 -10 70 3 26 22 65 32 77 20 8 -8 15 -7 28 6 19 19 33 22
33 8z m-2292 -132 c4 -34 -3 -39 -135 -93 -109 -45 -173 -58 -173 -35 0 6 32
45 72 85 l72 75 81 -3 c78 -3 80 -4 83 -29z m2962 -80 c25 -9 34 -9 40 0 4 7
22 11 41 9 l34 -3 3 -77 3 -78 -35 0 c-19 0 -37 4 -41 9 -3 6 -36 26 -72 45
-56 30 -78 36 -128 36 -70 0 -105 -18 -105 -56 0 -35 38 -47 136 -45 76 1 86
-1 176 -43 l95 -45 6 -68 c12 -127 18 -116 -84 -172 l-92 -49 -146 -1 c-91 -1
-159 3 -180 10 -27 9 -36 9 -39 1 -2 -7 -21 -12 -43 -12 l-39 0 -2 75 c-1 41
-2 83 -2 93 -1 23 73 31 86 9 4 -9 44 -36 88 -61 66 -38 88 -46 130 -46 63 0
110 28 110 66 0 37 -56 58 -150 55 -70 -2 -81 1 -172 43 l-98 45 0 88 0 88 88
47 87 46 136 1 c78 1 150 -4 169 -10z m-690 -46 l97 -38 7 -134 c3 -74 6 -158
6 -187 l0 -53 -92 -49 -93 -50 -200 -7 -200 -6 -90 36 c-49 20 -93 40 -96 43
-4 4 -10 89 -13 188 l-7 182 88 48 88 49 120 5 c312 13 279 16 385 -27z m-760
-28 c0 -31 -3 -35 -27 -35 -56 0 -60 -14 -55 -192 5 -179 11 -198 64 -198 25
0 28 -3 28 -34 0 -34 0 -35 -52 -40 -29 -3 -170 -8 -313 -11 -238 -6 -265 -4
-315 13 l-55 19 -3 74 c-3 73 -4 75 -36 93 -22 12 -49 16 -87 14 l-54 -3 -3
-58 c-3 -66 6 -83 52 -95 26 -7 31 -13 31 -38 l0 -29 -100 -6 c-55 -4 -144 -7
-197 -8 l-98 -1 0 35 c0 30 3 35 23 35 13 0 32 9 42 20 16 18 17 35 13 181 -6
176 -11 191 -65 193 -25 1 -28 5 -28 36 l0 35 290 9 c268 8 295 7 360 -10 l70
-19 0 -84 0 -85 -55 -22 c-30 -12 -56 -26 -58 -32 -2 -6 28 -18 66 -28 68 -17
70 -19 76 -53 3 -20 6 -48 6 -63 0 -20 8 -31 28 -41 29 -15 98 -12 120 5 9 8
12 56 12 176 0 183 -6 202 -62 202 -25 0 -28 3 -28 34 0 34 1 35 48 39 26 2
118 4 205 5 l157 2 0 -35z m-1400 -44 l95 -39 6 -88 c4 -49 7 -132 8 -184 l1
-95 -88 -49 -87 -49 -205 -7 -205 -8 -95 39 -95 38 -6 103 c-4 57 -7 140 -8
184 l-1 82 93 48 92 49 140 6 c276 10 251 13 355 -30z m2802 9 c63 -34 110
-77 51 -47 -22 12 -57 17 -113 17 -63 0 -82 3 -86 15 -4 8 -1 22 6 30 20 24
81 18 142 -15z m-3762 -35 c0 -32 -3 -35 -28 -35 -16 0 -37 -8 -46 -19 -15
-17 -16 -36 -9 -197 l8 -179 55 4 c48 3 62 9 112 50 45 36 58 52 58 74 0 25 3
27 45 27 l45 0 0 -109 0 -109 -187 -6 c-104 -3 -248 -8 -320 -12 l-133 -5 0
35 c0 31 3 36 23 36 13 0 32 9 42 20 16 18 17 34 11 182 -8 179 -15 198 -68
198 -27 0 -29 3 -26 33 l3 32 115 6 c63 3 157 6 208 7 l92 2 0 -35z m-652 3
c33 -8 46 -8 51 1 4 6 25 12 47 14 l39 2 3 -102 3 -103 -45 0 c-35 0 -46 4
-51 19 -3 10 -36 38 -73 62 -62 40 -71 43 -127 41 -55 -2 -63 -6 -97 -41 l-37
-39 6 -129 c6 -128 6 -128 37 -155 26 -22 41 -27 87 -28 73 0 91 18 87 86 l-3
49 -44 0 c-42 0 -45 1 -48 32 -2 17 0 34 4 36 5 3 94 7 198 8 l190 2 0 -34 c0
-31 -3 -34 -32 -37 l-33 -3 0 -100 0 -100 -42 3 c-25 2 -44 8 -44 16 -1 6 -2
14 -3 16 0 3 -27 -7 -58 -21 -54 -25 -68 -27 -208 -27 l-150 -1 -90 37 c-107
43 -102 31 -104 243 l-1 151 73 39 c39 21 87 47 104 56 25 14 60 19 150 21
129 3 147 2 211 -14z m-595 -35 c7 -35 2 -43 -27 -43 -13 0 -30 -8 -39 -17
-13 -16 -14 -44 -8 -228 4 -115 5 -213 3 -217 -2 -5 -50 -8 -108 -8 -80 0
-104 3 -104 13 0 8 -19 31 -43 53 -23 21 -97 90 -163 152 -67 61 -124 112
-129 112 -4 0 -4 -51 0 -112 9 -135 20 -158 75 -158 33 0 39 -4 44 -26 4 -15
3 -30 -1 -34 -4 -4 -70 -10 -145 -13 l-138 -6 0 34 c0 28 4 35 19 35 11 0 29
12 41 27 21 27 21 34 15 183 -8 170 -15 190 -67 190 -25 0 -28 3 -28 33 l0 34
172 7 c138 6 173 4 176 -6 6 -20 265 -267 280 -268 11 0 12 19 7 93 -4 50 -12
97 -17 104 -5 7 -26 13 -46 15 -30 2 -38 7 -40 26 -7 48 -1 50 136 51 l130 2
5 -28z m-843 -33 c0 -37 -2 -40 -29 -40 -50 0 -53 -14 -50 -193 4 -179 10
-197 60 -197 26 0 29 -3 29 -33 l0 -34 -122 -6 c-66 -4 -156 -7 -200 -7 l-78
0 0 35 c0 30 3 35 23 35 13 0 31 8 41 19 14 16 16 36 10 177 -4 87 -11 167
-15 176 -5 9 -24 18 -42 20 -28 3 -32 7 -35 36 -2 17 0 33 5 33 4 1 91 5 193
8 102 4 191 8 198 9 8 1 12 -12 12 -38z m5790 -175 c17 -9 30 -20 30 -25 0 -9
-40 -35 -43 -28 -19 37 -27 43 -58 43 -25 0 -36 -6 -45 -23 -7 -14 -14 -19
-18 -13 -4 6 1 22 10 36 13 20 25 25 56 25 21 0 52 -7 68 -15z m-162 -190 c2
-2 -7 -32 -19 -67 -16 -41 -25 -56 -27 -43 -2 11 -10 44 -17 73 l-14 54 37 -7
c20 -4 39 -8 40 -10z m-1888 -275 c0 -5 -5 -10 -11 -10 -5 0 -7 5 -4 10 3 6 8
10 11 10 2 0 4 -4 4 -10z m-3606 -79 c3 -5 -1 -11 -9 -15 -20 -7 -20 -79 0
-96 12 -10 21 -10 40 -2 21 10 25 19 25 52 0 27 -5 43 -15 46 -37 14 -9 24 69
24 l84 0 22 -35 c12 -19 25 -35 28 -35 4 0 17 15 28 33 19 29 27 33 63 33 23
0 41 -4 41 -8 0 -4 -4 -8 -10 -8 -5 0 -10 -25 -10 -55 0 -30 5 -55 10 -55 6 0
10 -4 10 -10 0 -5 -22 -10 -50 -10 -47 0 -63 11 -40 25 13 8 13 65 0 65 -5 0
-21 -21 -36 -46 l-27 -46 -26 41 c-31 49 -41 51 -41 11 0 -16 5 -30 10 -30 6
0 10 -4 10 -10 0 -5 -16 -10 -37 -10 -35 0 -35 1 -19 19 12 13 16 32 14 62 -3
39 -6 44 -28 44 -23 0 -25 -4 -28 -50 -3 -60 -19 -75 -80 -75 -68 0 -82 12
-82 71 0 35 -4 51 -15 55 -8 4 -15 10 -15 15 0 12 107 12 114 0z m876 0 c0 -6
-4 -13 -10 -16 -5 -3 -10 -28 -10 -56 0 -41 3 -49 18 -49 11 0 27 9 37 20 23
26 35 25 35 -1 0 -12 5 -19 13 -17 15 6 22 87 8 101 -20 20 -12 27 28 27 34 0
42 -5 61 -35 12 -19 25 -35 30 -35 5 0 18 15 30 34 l21 35 135 0 c113 1 136
-1 141 -15 9 -23 -11 -38 -27 -19 -7 8 -25 15 -41 15 -23 0 -29 -5 -29 -21 0
-16 4 -19 20 -14 17 5 20 2 20 -21 0 -22 -3 -25 -12 -16 -19 19 -28 14 -28
-13 0 -32 36 -34 68 -4 19 17 23 18 28 5 16 -42 1 -46 -151 -46 -81 0 -145 4
-145 9 0 5 5 11 11 13 6 2 9 21 7 43 l-3 40 -33 -52 c-19 -29 -35 -53 -37 -53
-2 0 -16 21 -32 48 l-28 47 -3 -35 c-2 -19 1 -36 7 -38 6 -2 11 -8 11 -13 0
-5 -56 -9 -125 -9 -113 0 -151 8 -110 24 21 8 21 94 0 102 -8 4 -12 10 -9 15
7 12 104 12 104 0z m820 -6 c26 -14 30 -21 30 -60 0 -39 -4 -46 -30 -60 -33
-17 -190 -22 -190 -5 0 6 5 10 10 10 6 0 10 25 10 55 0 30 -4 55 -10 55 -5 0
-10 5 -10 10 0 17 157 12 190 -5z m230 -10 c0 -29 -6 -31 -26 -10 -9 8 -29 15
-45 15 -23 0 -29 -4 -29 -21 0 -18 4 -20 25 -15 22 6 25 3 25 -19 0 -14 -4
-25 -10 -25 -5 0 -10 5 -10 10 0 6 -7 10 -15 10 -9 0 -15 -9 -15 -25 0 -20 5
-25 27 -25 15 0 37 10 50 22 l23 21 0 -31 0 -32 -90 0 c-53 0 -90 4 -90 10 0
6 5 10 10 10 6 0 10 25 10 55 0 30 -4 55 -10 55 -5 0 -10 5 -10 10 0 6 37 10
90 10 89 0 90 0 90 -25z m301 8 c10 -8 13 -28 11 -61 -3 -45 -7 -52 -33 -62
-38 -16 -37 -30 2 -30 20 0 28 -4 23 -11 -8 -14 -100 -5 -120 12 -8 6 -29 19
-47 28 -28 14 -32 21 -35 63 -3 42 0 48 25 63 32 18 152 17 174 -2z m143 8 c3
-5 -1 -12 -10 -15 -11 -4 -14 -17 -12 -47 6 -80 70 -80 76 0 2 30 -1 43 -12
47 -44 17 -4 24 117 22 128 -3 132 -4 135 -25 4 -26 -10 -30 -28 -8 -7 8 -25
15 -41 15 -23 0 -29 -5 -29 -21 0 -18 4 -20 25 -15 20 5 25 3 25 -13 0 -23
-16 -36 -25 -21 -11 18 -25 10 -25 -15 0 -20 5 -25 27 -25 15 0 37 10 50 22
l23 21 0 -31 0 -32 -90 0 c-88 0 -101 5 -79 27 5 5 9 30 7 54 -3 39 -6 44 -28
44 -23 0 -25 -4 -28 -50 -2 -32 -9 -55 -19 -62 -20 -15 -82 -17 -117 -3 -23 8
-26 15 -26 60 0 36 -4 52 -15 56 -8 4 -15 10 -15 15 0 12 107 12 114 0z m443
-33 l43 -42 0 32 c0 18 -4 32 -10 32 -5 0 -10 5 -10 10 0 6 68 10 185 10 117
0 185 -4 185 -10 0 -5 -4 -10 -10 -10 -5 0 -10 -25 -10 -55 0 -30 5 -55 10
-55 6 0 10 -4 10 -10 0 -5 -25 -10 -55 -10 -53 0 -72 11 -39 24 11 4 14 17 12
53 -3 51 -23 68 -37 32 l-8 -23 -12 22 c-6 12 -18 22 -26 22 -21 0 -21 -98 0
-106 33 -13 12 -24 -45 -24 -33 0 -60 4 -60 10 0 6 7 10 15 10 12 0 15 13 15
55 0 57 -11 69 -32 35 -16 -26 -28 -25 -28 1 0 12 -5 19 -12 17 -8 -3 -14 -28
-16 -66 -3 -57 -5 -62 -25 -62 -14 0 -41 18 -67 45 -24 24 -47 42 -52 39 -13
-8 -9 -41 7 -58 22 -22 19 -26 -20 -26 -19 0 -35 5 -35 10 0 6 5 10 10 10 6 0
10 25 10 55 0 30 -4 55 -10 55 -5 0 -10 5 -10 10 0 6 19 10 42 10 36 0 48 -6
85 -42z m540 -2 l38 -41 3 30 c2 16 -1 31 -7 33 -22 7 -10 19 19 20 30 1 40
-11 20 -23 -5 -3 -10 -33 -10 -66 0 -55 -2 -59 -23 -59 -14 0 -40 18 -67 45
-24 25 -48 45 -52 45 -15 0 -8 -60 7 -66 27 -11 16 -24 -20 -24 -34 0 -46 12
-25 25 6 3 10 28 10 56 0 27 -4 49 -10 49 -5 0 -10 4 -10 9 0 4 20 8 45 8 39
0 49 -5 82 -41z m343 14 c0 -35 -10 -38 -28 -10 -21 34 -32 22 -32 -35 0 -42
3 -55 15 -55 8 0 15 -4 15 -10 0 -6 -27 -10 -60 -10 -57 0 -78 11 -45 24 11 4
15 20 15 56 0 54 -7 61 -35 30 -19 -21 -27 -20 -31 7 -5 30 6 33 97 33 l89 0
0 -30z m170 -36 c22 -49 34 -65 47 -62 13 2 19 14 21 47 2 24 -2 49 -7 54 -22
22 -10 27 62 27 97 0 117 -7 117 -36 0 -13 -4 -24 -10 -24 -5 0 -10 -7 -10
-15 0 -8 7 -15 15 -15 8 0 15 -9 15 -20 0 -40 28 -19 59 45 30 60 35 65 65 65
31 0 35 -4 61 -65 20 -47 32 -65 46 -65 16 0 19 8 19 55 0 30 -4 55 -10 55 -5
0 -10 5 -10 10 0 6 19 10 43 10 37 0 48 -6 82 -40 21 -21 41 -37 45 -35 10 6
0 55 -11 55 -5 0 -9 5 -9 10 0 6 68 10 185 10 169 0 207 -5 175 -25 -5 -3 -10
-28 -10 -56 0 -27 5 -49 10 -49 6 0 10 -4 10 -10 0 -5 -25 -10 -55 -10 -53 0
-72 11 -39 24 11 4 14 17 12 53 -3 50 -22 68 -32 31 l-6 -23 -19 24 c-10 13
-23 21 -30 17 -17 -11 -14 -95 4 -102 33 -13 12 -24 -45 -24 -33 0 -60 4 -60
10 0 6 7 10 15 10 12 0 15 13 15 55 0 57 -11 69 -32 35 -16 -26 -28 -25 -28 1
0 29 -25 18 -27 -12 0 -13 -1 -41 -2 -61 -1 -33 -4 -38 -24 -38 -14 0 -40 18
-67 45 -24 25 -48 45 -52 45 -15 0 -8 -60 7 -66 37 -15 8 -24 -75 -24 -53 0
-90 4 -90 10 0 6 5 10 10 10 6 0 10 7 10 15 0 10 -10 15 -34 15 -34 0 -61 -20
-38 -28 31 -10 7 -22 -44 -22 -64 0 -94 13 -94 40 0 20 -17 30 -37 22 -15 -5
-17 -42 -3 -42 6 0 10 -4 10 -10 0 -6 -43 -10 -110 -10 -101 0 -134 9 -94 24
25 10 6 26 -31 26 -37 0 -56 -16 -31 -26 28 -11 17 -24 -20 -24 -20 0 -34 3
-32 8 13 28 62 119 70 130 6 6 23 12 39 12 26 0 32 -7 59 -66z m1140 31 c40
-42 50 -43 50 -10 0 16 -6 25 -15 25 -8 0 -15 5 -15 10 0 6 16 10 35 10 34 0
46 -12 25 -25 -5 -3 -10 -33 -10 -66 0 -55 -2 -59 -23 -59 -14 0 -40 18 -67
45 -24 25 -48 45 -52 45 -15 0 -8 -60 7 -66 27 -11 16 -24 -20 -24 -34 0 -46
12 -25 25 6 3 10 26 10 50 0 24 -4 47 -10 50 -22 14 -8 25 33 25 36 0 49 -6
77 -35z m314 16 c10 -9 16 -29 16 -57 0 -38 -4 -45 -30 -59 -39 -20 -139 -20
-168 1 -17 12 -22 25 -22 59 0 38 4 47 28 60 33 19 151 16 176 -4z m-468 -228
c-2 -16 -5 -39 -6 -53 -2 -21 -3 -20 -11 10 -9 38 -3 70 12 70 5 0 8 -12 5
-27z m-436 -67 c0 -11 -19 -15 -25 -6 -3 5 1 10 9 10 9 0 16 -2 16 -4z m67
-33 c-3 -3 -11 -2 -17 2 -9 6 -9 10 1 16 14 8 27 -7 16 -18z m-327 -20 c0 -8
12 -13 31 -13 43 0 27 -17 -21 -22 -32 -3 -40 0 -38 12 1 8 -1 20 -5 27 -5 8
-1 11 13 10 11 -1 20 -7 20 -14z m-2142 -83 c1 -28 -2 -58 -7 -68 -8 -13 -10
-2 -11 44 0 49 5 74 14 74 1 0 2 -23 4 -50z m2452 10 c0 -4 6 -7 13 -6 26 3
21 -18 -7 -27 -20 -7 -35 -6 -48 2 -10 6 -25 11 -33 11 -8 0 -15 5 -15 11 0 7
10 9 24 7 15 -3 27 0 30 8 5 14 36 8 36 -6z m-250 -11 c0 -6 -8 -9 -18 -7 -15
4 -18 1 -14 -17 2 -14 -2 -24 -12 -28 -9 -4 -16 -2 -16 3 0 6 -11 10 -25 10
-31 0 -32 13 -2 33 26 18 87 22 87 6z m-384 -38 c0 -11 -5 -17 -13 -14 -10 4
-11 9 -2 19 15 18 15 18 15 -5z m-80 -36 c4 -8 17 -15 29 -15 13 0 26 -4 29
-9 4 -5 -3 -7 -14 -4 -12 3 -20 0 -20 -7 0 -8 -8 -10 -24 -6 -14 3 -28 2 -31
-4 -3 -5 -13 -10 -22 -10 -13 0 -13 3 -3 15 7 8 21 15 32 15 11 0 16 4 12 11
-3 6 -22 9 -40 7 -19 -2 -34 -1 -34 3 0 21 78 25 86 4z m-879 -1 c-3 -3 -12
-4 -19 -1 -8 3 -5 6 6 6 11 1 17 -2 13 -5z m-974 -86 c2 -24 7 -50 11 -58 4
-11 -12 -24 -59 -47 -36 -17 -65 -27 -65 -22 0 12 -87 11 -111 -1 -22 -13 -59
3 -59 24 0 11 15 14 62 12 53 -3 65 0 80 18 9 12 17 27 18 34 0 21 20 13 30
-12 10 -27 30 -44 30 -26 0 7 7 9 16 6 10 -4 15 0 13 12 -5 53 2 102 15 102 8
0 15 -16 19 -42z m3018 -40 c5 -10 7 -18 4 -18 -10 0 -65 63 -65 74 0 12 49
-33 61 -56z m-2167 35 c3 -10 8 -23 11 -29 4 -8 -10 -12 -40 -12 -25 -1 -45 3
-45 8 0 6 7 10 15 10 8 0 19 9 25 20 13 25 26 26 34 3z m116 -8 c27 -15 20
-19 -17 -9 -13 4 -23 10 -23 15 0 12 11 11 40 -6z m-1400 -55 c0 -5 -4 -10
-10 -10 -5 0 -10 5 -10 10 0 6 5 10 10 10 6 0 10 -4 10 -10z m3541 -63 c-3
-57 -7 -68 -17 -43 -7 19 5 111 14 102 3 -4 5 -30 3 -59z m-3756 -7 c3 -5 -1
-10 -9 -10 -8 0 -18 5 -21 10 -3 6 1 10 9 10 8 0 18 -4 21 -10z m345 -50 c0
-5 -4 -10 -10 -10 -5 0 -10 5 -10 10 0 6 5 10 10 10 6 0 10 -4 10 -10z"/>
<path d="M7785 8180 c-4 -6 -2 -10 4 -10 6 0 36 -16 66 -36 70 -44 90 -40 43
11 -26 29 -44 39 -71 41 -20 2 -39 -1 -42 -6z"/>
<path d="M7014 8066 c-10 -8 -17 -17 -14 -19 3 -3 16 3 29 14 27 22 15 26 -15
5z"/>
<path d="M8050 7595 c0 -8 5 -15 10 -15 6 0 10 7 10 15 0 8 -4 15 -10 15 -5 0
-10 -7 -10 -15z"/>
<path d="M8002 7425 c0 -16 2 -22 5 -12 2 9 2 23 0 30 -3 6 -5 -1 -5 -18z"/>
<path d="M8036 7363 c-6 -14 -5 -15 5 -6 7 7 10 15 7 18 -3 3 -9 -2 -12 -12z"/>
<path d="M6425 6798 c9 -30 9 -40 0 -60 -4 -11 -3 -18 4 -18 19 0 29 41 17 72
-12 33 -31 38 -21 6z"/>
<path d="M4430 6580 c0 -5 5 -10 11 -10 5 0 7 5 4 10 -3 6 -8 10 -11 10 -2 0
-4 -4 -4 -10z"/>
<path d="M7881 5324 c0 -11 3 -14 6 -6 3 7 2 16 -1 19 -3 4 -6 -2 -5 -13z"/>
<path d="M8300 5250 c0 -12 -4 -19 -9 -15 -10 6 -26 -13 -18 -21 2 -3 17 -2
31 2 20 5 26 12 24 27 -4 28 -28 34 -28 7z"/>
<path d="M7700 3765 c0 -8 5 -15 10 -15 6 0 10 7 10 15 0 8 -4 15 -10 15 -5 0
-10 -7 -10 -15z"/>
<path d="M7385 3440 c10 -11 20 -18 23 -16 5 6 -23 36 -34 36 -4 0 1 -9 11
-20z"/>
<path d="M7862 2488 c6 -18 28 -21 28 -4 0 9 -7 16 -16 16 -9 0 -14 -5 -12
-12z"/>
<path d="M7267 2413 c-2 -5 -1 -89 2 -188 l6 -180 79 -3 c77 -3 80 -2 113 30
l33 32 0 123 0 122 -31 36 c-31 35 -32 35 -114 35 -46 0 -86 -3 -88 -7z"/>
<path d="M6432 2319 l3 -84 60 1 c33 0 72 6 88 12 25 11 27 16 27 66 0 70 -13
80 -107 84 l-74 4 3 -83z"/>
<path d="M5606 2252 c-20 -48 -36 -93 -36 -100 0 -9 20 -11 83 -6 45 4 83 7
84 8 4 3 -81 186 -87 186 -4 0 -24 -40 -44 -88z"/>
<path d="M3497 2187 c-20 -51 -37 -95 -37 -99 0 -9 154 -11 162 -2 6 5 -66
172 -80 186 -4 4 -24 -34 -45 -85z"/>
<path d="M2772 2281 c-9 -5 -12 -28 -10 -77 l3 -69 60 3 c33 2 72 8 88 14 25
9 27 15 27 63 0 52 0 52 -39 63 -44 14 -110 15 -129 3z m31 -63 c5 -39 3 -58
-7 -47 -8 10 -15 89 -7 89 4 0 11 -19 14 -42z"/>
<path d="M2772 1983 l3 -88 58 -2 c32 -1 74 5 93 13 34 14 34 15 34 79 0 61
-2 66 -26 75 -14 6 -57 10 -95 10 l-70 0 3 -87z"/>
<path d="M7985 1656 l-32 -34 5 -134 c4 -132 4 -133 35 -165 28 -30 36 -33 94
-33 56 0 66 3 99 32 l37 32 -7 141 -7 140 -32 27 c-27 24 -41 28 -96 28 -60 0
-66 -2 -96 -34z"/>
<path d="M6701 1636 c-8 -9 -9 -37 -5 -85 l7 -71 54 0 c29 0 69 6 88 14 32 14
34 17 30 53 -2 21 -4 48 -4 60 -1 14 -11 24 -32 32 -45 16 -124 14 -138 -3z"/>
<path d="M5821 1586 l-33 -34 7 -136 8 -136 34 -30 c22 -20 41 -28 56 -26 12
3 41 5 64 5 34 1 48 7 73 34 l31 32 -6 135 -6 135 -31 28 c-28 24 -41 27 -98
27 -62 0 -68 -2 -99 -34z"/>
<path d="M4490 785 c0 -56 0 -56 28 -53 25 3 27 6 27 53 0 47 -2 50 -27 53
-28 3 -28 3 -28 -53z"/>
<path d="M4888 828 c-3 -7 -4 -31 -4 -53 1 -38 3 -40 31 -40 29 0 30 1 30 50
0 47 -2 50 -26 53 -15 2 -28 -3 -31 -10z"/>
<path d="M5394 826 c-3 -8 -4 -31 -2 -52 3 -36 6 -39 36 -42 21 -2 32 1 33 10
0 7 2 24 4 38 1 14 -2 33 -7 43 -10 20 -56 23 -64 3z"/>
<path d="M7290 814 c0 -21 4 -25 23 -22 14 2 23 11 25 26 3 18 -1 22 -22 22
-21 0 -26 -5 -26 -26z"/>
<path d="M7057 799 c-3 -13 0 -22 9 -26 20 -8 36 10 28 30 -9 24 -31 21 -37
-4z"/>
<path d="M7496 803 c-9 -22 10 -41 25 -26 13 13 5 43 -10 43 -5 0 -12 -8 -15
-17z"/>
<path d="M8491 826 c-7 -8 -11 -32 -9 -53 3 -35 6 -38 35 -41 27 -3 33 1 38
21 4 14 5 38 3 53 -2 23 -9 30 -29 32 -14 2 -31 -4 -38 -12z"/>
<path d="M5060 165 c0 -8 7 -15 15 -15 8 0 15 7 15 15 0 8 -7 15 -15 15 -8 0
-15 -7 -15 -15z"/>
<path d="M8340 8422 c0 -48 6 -53 21 -15 8 21 6 30 -6 42 -13 14 -15 11 -15
-27z"/>
<path d="M3432 8410 c0 -14 2 -19 5 -12 2 6 2 18 0 25 -3 6 -5 1 -5 -13z"/>
<path d="M3427 8263 c-12 -11 -8 -40 8 -53 13 -11 14 -8 9 21 -8 40 -9 41 -17
32z"/>
<path d="M3435 8047 c-4 -10 -5 -21 -1 -24 10 -10 18 4 13 24 -4 17 -4 17 -12
0z"/>
<path d="M3402 8030 c0 -14 2 -19 5 -12 2 6 2 18 0 25 -3 6 -5 1 -5 -13z"/>
<path d="M3466 7961 c-4 -7 -5 -15 -2 -18 9 -9 19 4 14 18 -4 11 -6 11 -12 0z"/>
<path d="M3402 7929 c2 -7 10 -15 17 -17 8 -3 12 1 9 9 -2 7 -10 15 -17 17 -8
3 -12 -1 -9 -9z"/>
<path d="M3470 7701 c0 -12 5 -21 10 -21 6 0 10 6 10 14 0 8 -4 18 -10 21 -5
3 -10 -3 -10 -14z"/>
<path d="M8611 7664 c0 -11 3 -14 6 -6 3 7 2 16 -1 19 -3 4 -6 -2 -5 -13z"/>
<path d="M3460 7645 c0 -8 5 -15 10 -15 6 0 10 7 10 15 0 8 -4 15 -10 15 -5 0
-10 -7 -10 -15z"/>
<path d="M3391 7584 c0 -11 3 -14 6 -6 3 7 2 16 -1 19 -3 4 -6 -2 -5 -13z"/>
<path d="M3340 7580 c0 -5 5 -10 11 -10 5 0 7 5 4 10 -3 6 -8 10 -11 10 -2 0
-4 -4 -4 -10z"/>
<path d="M3410 7507 c0 -14 19 -37 32 -37 16 0 7 30 -12 40 -15 8 -20 8 -20
-3z"/>
<path d="M8600 7491 c-13 -26 -13 -31 4 -31 13 0 26 20 26 41 0 16 -19 10 -30
-10z"/>
<path d="M8548 7463 c-10 -11 -18 -25 -18 -31 0 -7 -7 -12 -15 -12 -9 0 -15
-9 -15 -21 0 -14 5 -19 14 -16 9 4 16 -1 18 -11 6 -32 39 36 36 75 -3 34 -3
35 -20 16z"/>
<path d="M8580 7384 c0 -8 5 -12 10 -9 6 3 10 10 10 16 0 5 -4 9 -10 9 -5 0
-10 -7 -10 -16z"/>
<path d="M3430 7321 c0 -17 12 -41 20 -41 10 0 1 38 -11 46 -5 3 -9 1 -9 -5z"/>
<path d="M3420 7250 c0 -5 5 -10 10 -10 6 0 10 5 10 10 0 6 -4 10 -10 10 -5 0
-10 -4 -10 -10z"/>
<path d="M8446 7238 c-2 -7 -7 -25 -10 -40 -4 -19 -11 -26 -21 -22 -8 4 -15
12 -15 20 0 8 -4 14 -10 14 -5 0 -10 -7 -10 -15 0 -8 5 -15 10 -15 6 0 10 -6
10 -14 0 -7 9 -16 19 -19 14 -3 18 -11 14 -26 -4 -15 -1 -21 12 -21 13 0 16 6
11 24 -3 14 -2 28 4 31 13 8 13 82 0 90 -6 3 -12 0 -14 -7z"/>
<path d="M3400 7194 c0 -8 5 -12 10 -9 6 3 10 10 10 16 0 5 -4 9 -10 9 -5 0
-10 -7 -10 -16z"/>
<path d="M8530 7180 c0 -5 5 -10 11 -10 5 0 7 5 4 10 -3 6 -8 10 -11 10 -2 0
-4 -4 -4 -10z"/>
<path d="M8490 7111 c0 -14 6 -19 20 -18 12 1 20 8 20 19 0 11 -7 18 -20 18
-13 0 -20 -7 -20 -19z"/>
<path d="M3241 7074 c0 -11 3 -14 6 -6 3 7 2 16 -1 19 -3 4 -6 -2 -5 -13z"/>
<path d="M8500 7050 c-6 -37 -6 -69 0 -65 13 8 18 42 9 56 -5 8 -9 12 -9 9z"/>
<path d="M3350 6841 c0 -12 5 -21 10 -21 6 0 10 6 10 14 0 8 -4 18 -10 21 -5
3 -10 -3 -10 -14z"/>
<path d="M8419 6826 c-9 -6 -14 -17 -11 -24 2 -7 -2 -11 -8 -10 -24 6 -20 -19
6 -45 34 -34 44 -34 45 1 1 15 2 39 3 54 2 31 -13 41 -35 24z"/>
<path d="M8486 6762 c-9 -37 -2 -52 15 -35 8 8 8 20 2 40 l-10 28 -7 -33z"/>
<path d="M3390 6715 c0 -8 5 -15 10 -15 6 0 10 7 10 15 0 8 -4 15 -10 15 -5 0
-10 -7 -10 -15z"/>
<path d="M3255 6590 c-3 -5 -1 -10 4 -10 6 0 11 5 11 10 0 6 -2 10 -4 10 -3 0
-8 -4 -11 -10z"/>
<path d="M8950 5346 c0 -4 11 -29 25 -56 14 -28 25 -51 24 -52 -6 -10 15 -48
27 -48 14 0 14 -13 -3 -72 -7 -27 5 -21 21 10 8 16 15 46 16 68 0 21 2 60 3
86 3 51 11 45 -83 64 -16 4 -30 3 -30 0z"/>
<path d="M8857 5176 c-3 -8 0 -20 8 -26 11 -9 16 -7 24 9 15 27 14 31 -8 31
-10 0 -21 -6 -24 -14z"/>
<path d="M3356 5094 c-6 -24 -2 -44 8 -33 9 11 15 59 7 59 -5 0 -12 -12 -15
-26z"/>
<path d="M8866 5094 c-3 -9 -6 -24 -6 -35 0 -23 -26 -25 -38 -3 -15 27 -23 0
-11 -35 12 -34 4 -55 -12 -31 -8 13 -10 13 -18 0 -12 -17 6 -43 23 -33 6 3 3
-3 -7 -15 -18 -20 -18 -21 11 -36 l31 -16 66 63 67 64 -12 41 c-6 23 -14 42
-18 43 -4 0 -21 2 -39 4 -22 3 -33 0 -37 -11z"/>
<path d="M8640 5005 c0 -10 41 -45 53 -45 7 1 5 6 -5 14 -10 7 -18 18 -18 25
0 6 -7 11 -15 11 -8 0 -15 -2 -15 -5z"/>
<path d="M7733 296 c3 -7 0 -19 -6 -25 -8 -8 -7 -11 6 -11 15 0 57 33 57 45 0
3 -14 5 -31 5 -22 0 -30 -4 -26 -14z"/>
<path d="M7525 200 c3 -5 16 -10 28 -10 18 0 19 2 7 10 -20 13 -43 13 -35 0z"/>
<path d="M6940 130 c0 -5 5 -10 10 -10 6 0 10 5 10 10 0 6 -4 10 -10 10 -5 0
-10 -4 -10 -10z"/>
<path d="M6090 107 c0 -16 29 -57 30 -42 0 6 4 4 9 -4 8 -12 11 -12 23 0 7 8
14 24 15 37 2 19 -2 22 -37 22 -26 0 -40 -4 -40 -13z"/>
<path d="M6007 103 c-4 -3 2 -13 14 -21 23 -16 34 -10 26 13 -7 15 -28 20 -40
8z"/>
<path d="M7250 90 c0 -5 7 -10 16 -10 8 0 12 5 9 10 -3 6 -10 10 -16 10 -5 0
-9 -4 -9 -10z"/>
<path d="M5080 70 c0 -5 4 -10 9 -10 6 0 13 5 16 10 3 6 -1 10 -9 10 -9 0 -16
-4 -16 -10z"/>
<path d="M4627 40 c-3 -13 0 -20 9 -20 15 0 19 26 5 34 -5 3 -11 -3 -14 -14z"/>
<path d="M6000 50 c0 -5 5 -10 10 -10 6 0 10 5 10 10 0 6 -4 10 -10 10 -5 0
-10 -4 -10 -10z"/>
<path d="M4562 20 c7 -11 24 -20 38 -20 l25 0 -30 20 c-38 25 -48 25 -33 0z"/>
<path d="M7250 30 c0 -5 12 -10 26 -10 14 0 23 4 19 10 -3 6 -15 10 -26 10
-10 0 -19 -4 -19 -10z"/>
<path d="M5100 10 c0 -13 37 -13 45 0 4 6 -5 10 -19 10 -14 0 -26 -4 -26 -10z"/>
<path d="M6115 10 c3 -5 11 -10 16 -10 6 0 7 5 4 10 -3 6 -11 10 -16 10 -6 0
-7 -4 -4 -10z"/>
</g>
</svg>
